{"glyphs":{"0":{"ha":664,"x_min":-19,"x_max":685,"o":"m 647 864 q 676 739 667 804 q 685 606 685 674 q 672 439 685 522 q 633 281 658 356 q 572 146 608 207 q 492 43 536 85 q 428 -1 460 15 q 361 -17 397 -17 q 286 -1 322 -17 q 160 76 217 26 q 63 191 103 125 q 2 339 24 257 q -19 514 -19 421 q -10 634 -19 572 q 20 754 0 696 q 72 865 40 813 q 149 956 104 917 q 175 981 163 968 q 204 1004 188 994 q 290 1042 244 1026 q 385 1057 336 1057 q 471 1043 429 1057 q 547 1003 513 1029 q 608 942 582 978 q 647 864 633 907 m 400 293 q 419 327 411 307 q 434 372 428 347 q 443 424 440 397 q 446 478 446 451 q 444 508 446 486 q 437 555 442 531 q 424 597 432 579 q 403 615 415 615 q 383 599 393 615 q 366 561 374 583 q 353 517 358 539 q 347 483 349 496 q 343 400 343 442 q 347 342 343 369 q 367 294 351 315 q 400 293 383 272 z "},"1":{"ha":507,"x_min":-39,"x_max":518,"o":"m 518 418 q 515 242 518 328 q 500 78 513 157 q 479 31 496 51 q 438 -3 463 11 q 385 -23 414 -17 q 325 -29 356 -29 q 139 165 139 -29 l 139 176 q 144 337 139 256 q 165 490 150 418 q 156 506 168 504 q 85 544 115 511 q 40 596 63 568 q 0 656 18 624 q -28 725 -18 689 q -39 803 -39 761 q -29 877 -39 843 q 14 939 -19 911 q 151 1025 76 988 q 311 1063 226 1063 q 385 1054 347 1063 q 446 1009 422 1046 q 483 924 469 972 q 503 824 497 876 q 510 732 508 772 q 515 597 513 664 q 518 463 518 531 l 518 418 z "},"2":{"ha":628,"x_min":-36,"x_max":678,"o":"m 418 332 q 455 346 436 335 q 493 369 474 357 q 532 392 513 382 q 571 401 551 401 q 619 378 599 401 q 652 322 639 354 q 672 255 665 289 q 678 200 678 221 q 663 119 678 156 q 611 61 647 83 q 458 -7 543 21 q 282 -35 374 -35 q 189 -26 239 -35 q 96 3 139 -18 q 24 59 53 24 q -6 147 -6 94 q -3 176 -6 158 q 6 211 0 193 q 22 244 13 229 q 42 263 31 258 q 169 338 117 289 q 261 453 222 386 q 269 467 264 457 q 280 490 275 478 q 289 516 285 503 q 293 540 293 529 q 285 560 293 557 q 265 564 278 564 q 206 538 229 560 q 164 493 183 517 q 147 480 157 483 q 128 476 138 476 q 92 486 110 476 q 63 507 75 496 q -5 585 26 539 q -36 692 -36 631 q -36 705 -36 699 q -35 718 -36 711 q 8 852 -26 790 q 92 960 42 914 q 208 1031 143 1006 q 346 1057 274 1057 q 458 1033 410 1057 q 540 968 507 1010 q 590 869 574 926 q 607 746 607 813 q 595 625 607 681 q 559 520 583 569 q 499 425 535 471 q 418 332 464 379 z "},"3":{"ha":650,"x_min":-24,"x_max":667,"o":"m 283 722 q 257 732 272 729 q 225 735 242 735 q 144 721 185 735 q 86 692 104 707 q 71 685 76 685 q 57 689 64 685 q 43 700 50 693 q -8 774 8 732 q -24 863 -24 815 q 3 994 -24 928 q 53 1035 13 1019 q 143 1058 93 1050 q 242 1069 193 1067 q 317 1072 290 1072 q 451 1063 386 1072 q 576 1039 515 1054 q 646 982 625 1026 q 667 882 667 938 q 533 610 667 708 q 554 594 539 599 q 578 581 569 589 q 642 471 621 536 q 664 335 664 406 q 645 210 664 271 q 586 103 626 149 q 458 5 525 33 q 299 -24 390 -24 q 185 -8 242 -24 q 85 40 129 8 q 15 118 42 71 q -12 229 -12 165 q -7 285 -12 257 q 10 338 -1 313 q 39 381 22 363 q 78 410 56 400 q 90 413 86 413 q 116 401 106 413 q 139 383 126 390 q 240 360 186 360 q 280 365 260 360 q 317 379 300 369 q 344 406 333 389 q 356 444 356 422 q 329 487 356 474 q 271 500 303 500 q 238 497 254 500 q 208 488 222 493 l 204 488 q 183 496 196 488 q 160 517 171 504 q 141 544 149 529 q 133 569 133 558 q 135 579 133 576 q 197 660 157 631 q 281 718 238 690 q 283 722 282 718 z "},"4":{"ha":722,"x_min":-29,"x_max":778,"o":"m 301 249 q 159 280 221 249 q 56 364 97 311 q -8 485 14 417 q -29 626 -29 553 q 13 835 -29 735 q 118 1015 56 936 q 151 1042 133 1035 q 190 1050 169 1050 q 258 1038 224 1050 q 321 1002 293 1025 q 366 949 349 979 q 383 882 383 918 q 379 847 383 867 q 365 806 372 826 q 350 765 357 785 q 322 670 332 718 q 313 572 313 622 l 313 554 q 323 512 314 531 q 350 485 332 493 q 375 497 374 474 q 407 718 388 610 q 450 931 426 826 q 465 966 454 947 q 490 1001 475 985 q 525 1029 506 1018 q 565 1040 544 1040 q 606 1028 588 1040 q 648 973 633 1008 q 669 894 663 938 q 677 804 675 851 q 683 715 679 757 q 685 681 685 707 q 688 626 686 654 q 694 575 690 597 q 706 553 699 553 q 759 519 740 550 q 778 453 778 489 q 767 406 778 428 q 736 371 757 383 q 719 343 719 361 q 720 338 719 340 q 721 333 721 336 q 729 265 725 301 q 733 194 733 229 q 723 112 733 150 q 685 51 713 74 q 606 3 650 24 q 517 -17 561 -17 q 436 9 467 -17 q 390 73 406 35 q 367 156 374 111 q 358 239 361 200 q 350 250 357 249 q 332 250 343 251 q 317 249 325 249 q 301 249 308 249 z "},"5":{"ha":646,"x_min":-31,"x_max":681,"o":"m 53 756 q 15 783 31 769 q -11 811 -1 796 q -26 847 -21 826 q -31 893 -31 867 q -18 956 -31 928 q 19 997 -6 985 q 170 1051 86 1029 q 340 1074 254 1074 q 444 1063 389 1074 q 546 1028 499 1053 q 624 965 593 1004 q 654 865 654 925 q 635 788 654 825 q 583 726 617 750 q 556 715 568 715 q 535 721 549 715 q 438 752 489 742 q 324 763 388 763 l 311 763 q 296 753 303 763 q 283 732 289 744 q 274 707 278 719 q 269 688 271 694 q 269 676 267 676 q 282 674 271 675 q 440 655 367 669 q 566 606 513 640 q 650 513 619 572 q 681 358 681 453 q 667 252 681 304 q 629 157 653 200 q 572 81 606 114 q 500 33 539 49 q 289 -10 393 -10 q 188 3 239 -10 q 94 41 136 15 q 27 108 53 67 q 1 208 1 150 q 7 256 1 226 q 24 312 13 285 q 54 359 36 339 q 97 379 72 379 q 121 368 111 379 q 181 320 147 336 q 251 304 215 304 q 288 308 268 304 q 326 320 308 311 q 355 343 343 329 q 367 378 367 357 q 356 424 367 406 q 326 455 344 443 q 283 472 307 467 q 236 478 260 478 q 163 466 199 478 q 97 436 126 454 q 58 422 75 422 q 22 451 32 422 q 11 525 11 481 q 15 591 11 557 q 26 657 19 625 q 40 715 32 689 q 53 756 47 742 z "},"6":{"ha":657,"x_min":-18,"x_max":710,"o":"m 364 614 q 458 633 411 633 q 553 615 507 633 q 633 565 599 597 q 689 488 668 532 q 710 393 710 444 q 699 314 710 356 q 671 233 689 272 q 628 158 653 193 q 575 99 604 124 q 460 19 526 56 q 317 -17 393 -17 q 242 -5 281 -17 q 167 27 203 7 q 102 74 132 47 q 56 133 72 101 q 3 260 24 192 q -18 413 -18 329 q -3 546 -18 481 q 39 674 13 611 q 100 795 65 736 q 172 908 135 854 q 213 958 188 929 q 268 1011 238 986 q 331 1054 299 1036 q 392 1072 363 1072 q 469 1053 432 1072 q 535 1003 507 1033 q 579 933 563 972 q 596 856 596 894 q 567 761 596 807 q 549 744 560 750 q 525 735 538 739 q 433 687 474 718 q 361 617 393 656 l 364 614 m 336 286 q 356 282 347 282 q 397 303 382 282 q 413 347 413 324 q 397 388 413 371 q 357 406 381 406 q 316 384 332 406 q 289 344 300 363 q 286 333 286 340 q 292 317 286 325 q 306 303 297 310 q 322 292 314 297 q 336 286 331 288 z "},"7":{"ha":599,"x_min":-40,"x_max":625,"o":"m 35 1032 q 147 1066 85 1056 q 274 1076 208 1076 q 388 1069 332 1076 q 496 1047 444 1063 q 558 1015 533 1038 q 597 963 582 993 q 619 897 613 933 q 625 818 625 860 q 617 710 625 767 q 604 688 615 696 q 522 591 558 649 q 460 467 485 533 q 422 333 435 401 q 408 203 408 264 q 412 147 408 175 q 415 90 415 119 q 397 43 415 64 q 348 8 378 22 q 283 -12 318 -6 q 214 -19 247 -19 q 54 151 54 -19 q 78 290 54 217 q 140 433 101 363 q 225 565 178 504 q 319 665 272 626 q 328 681 328 672 q 318 700 328 690 q 296 718 308 710 q 272 732 283 726 q 254 739 260 738 q 228 742 242 742 q 203 743 215 743 q 123 735 163 743 q 49 718 83 726 q 32 717 43 717 q 0 727 14 717 q -23 754 -14 738 q -36 792 -32 771 q -40 835 -40 813 q -35 885 -40 856 q -22 945 -31 915 q 2 999 -12 975 q 35 1032 17 1024 z "},"8":{"ha":629,"x_min":-32,"x_max":656,"o":"m 269 -14 q 153 3 208 -14 q 58 53 99 21 q -8 133 17 86 q -32 239 -32 179 q 5 390 -32 317 q 94 517 42 464 q 110 532 106 528 q 114 542 114 536 q 107 565 114 544 q 77 637 93 601 q 53 710 61 672 q 47 745 49 728 q 46 779 46 763 q 73 907 46 849 q 143 1001 100 965 q 256 1055 183 1033 q 407 1076 329 1076 q 490 1069 450 1076 q 561 1044 529 1061 q 614 999 593 1026 q 639 933 635 972 q 641 909 640 921 q 642 885 642 897 q 633 799 642 846 q 611 703 625 751 q 580 611 597 656 q 546 533 563 567 q 550 515 542 524 q 585 475 567 497 q 619 426 604 453 q 645 369 635 400 q 656 306 656 339 q 647 250 656 279 q 597 146 631 193 q 515 64 563 99 q 408 8 467 29 q 283 -14 349 -12 l 269 -14 m 349 651 q 380 706 367 669 q 393 779 393 743 q 392 795 393 788 q 389 810 390 803 q 378 822 385 822 q 363 815 371 822 q 351 803 354 808 q 326 751 336 781 q 317 692 317 721 q 321 658 317 675 q 349 651 329 632 m 281 217 q 301 203 278 182 q 357 331 357 254 l 356 338 l 356 342 q 338 364 354 364 q 308 346 319 364 q 291 303 297 328 q 283 253 285 278 q 281 217 281 229 z "},"9":{"ha":664,"x_min":-42,"x_max":688,"o":"m 306 451 q 260 440 282 443 q 215 436 238 436 q 119 454 165 436 q 37 503 72 472 q -20 578 1 535 q -42 672 -42 621 q -32 751 -42 710 q -5 832 -22 793 q 36 906 13 871 q 89 965 60 940 q 144 1008 114 988 q 207 1046 174 1029 q 276 1073 240 1063 q 351 1083 313 1083 q 425 1072 386 1083 q 499 1040 464 1060 q 565 993 535 1019 q 611 936 594 967 q 667 805 646 872 q 688 658 688 738 q 672 523 688 588 q 631 397 657 458 q 571 278 606 336 q 497 163 536 219 q 456 113 482 142 q 401 57 431 83 q 338 13 371 31 q 276 -6 306 -6 q 199 14 236 -6 q 135 65 163 33 q 90 134 107 96 q 74 211 74 172 q 81 259 74 235 q 103 307 88 283 q 121 324 110 318 q 144 333 132 329 q 237 379 192 349 q 306 451 282 410 m 254 721 q 272 679 254 696 q 311 663 289 663 q 351 681 335 663 q 376 732 376 706 q 367 760 376 747 q 335 781 357 774 q 314 785 325 785 q 272 767 290 785 q 254 721 254 749 z "},"\u0000":{"ha":0,"x_min":0,"x_max":0,"o":""},"\r":{"ha":347,"x_min":0,"x_max":0,"o":""}," ":{"ha":253,"x_min":0,"x_max":0,"o":""},"`":{"ha":282,"x_min":-25,"x_max":304,"o":"m 300 881 q 304 861 304 875 q 301 833 304 849 q 292 803 297 817 q 278 781 286 790 q 261 771 271 771 q 251 772 254 771 q 124 849 185 808 q 0 926 64 889 q -25 967 -25 942 q -16 1001 -25 983 q 5 1034 -7 1018 q 29 1064 17 1050 q 49 1086 42 1078 q 86 1110 65 1110 q 117 1092 103 1110 q 209 988 160 1036 q 300 881 258 939 z "},"'":{"ha":190,"x_min":-4,"x_max":200,"o":"m 140 826 q 129 815 139 821 q 106 803 119 808 q 77 794 92 797 q 50 790 63 790 q 25 804 26 790 q 5 930 14 861 q -4 1057 -4 999 q 24 1092 -4 1085 q 88 1100 53 1100 q 123 1099 106 1100 q 154 1099 140 1099 q 200 1068 200 1099 q 199 1056 200 1060 q 169 939 179 999 q 140 826 160 879 z "},"!":{"ha":365,"x_min":-10,"x_max":372,"o":"m 371 785 q 363 683 371 735 q 342 583 356 632 q 313 488 329 533 q 278 406 296 443 q 243 358 267 382 q 188 335 219 335 q 147 349 167 335 q 80 416 110 374 q 31 511 50 458 q 1 624 11 564 q -10 746 -10 685 q -6 826 -10 788 q 18 912 0 871 q 66 985 36 953 q 135 1036 96 1017 q 221 1056 174 1056 q 291 1033 263 1056 q 338 975 319 1011 q 364 892 356 939 q 372 797 372 846 l 371 793 l 371 785 m 196 0 q 135 9 164 0 q 85 36 107 18 q 51 81 64 54 q 39 142 39 107 q 53 206 39 178 q 90 254 67 235 q 143 285 113 274 q 208 296 174 296 l 221 296 q 279 288 251 296 q 328 263 307 279 q 360 223 349 246 q 372 171 372 200 q 358 106 372 138 q 321 51 344 75 q 265 14 297 28 q 196 0 232 0 z "},"\"":{"ha":413,"x_min":-4,"x_max":422,"o":"m 363 826 q 351 815 361 821 q 328 803 342 808 q 299 794 314 797 q 272 790 285 790 q 247 804 249 790 q 227 930 236 861 q 218 1057 218 999 q 247 1092 218 1085 q 310 1100 275 1100 q 345 1099 328 1100 q 376 1099 363 1099 q 422 1068 422 1099 q 421 1056 422 1060 q 392 939 401 999 q 363 826 382 879 m 140 826 q 129 815 139 821 q 106 803 119 808 q 77 794 92 797 q 50 790 63 790 q 25 804 26 790 q 5 930 14 861 q -4 1057 -4 999 q 24 1092 -4 1085 q 88 1100 53 1100 q 123 1099 106 1100 q 154 1099 140 1099 q 200 1068 200 1099 q 199 1056 200 1060 q 169 939 179 999 q 140 826 160 879 z "},"#":{"ha":786,"x_min":-29,"x_max":832,"o":"m 47 538 q -7 548 15 539 q -29 596 -29 557 q -12 642 -29 621 q 31 671 4 664 l 78 683 q 93 688 92 686 q 97 703 94 690 q 110 762 101 732 q 135 816 119 792 q 173 856 150 840 q 228 872 196 871 l 238 872 q 286 868 261 872 q 332 853 311 864 q 366 823 353 842 q 379 775 379 804 l 378 769 l 378 767 q 374 750 376 761 q 371 731 371 739 q 379 721 371 721 l 379 719 l 400 719 q 431 722 415 719 q 447 735 446 724 q 456 802 450 772 q 477 853 463 832 q 517 885 492 874 q 583 897 543 897 q 690 856 647 897 q 733 749 733 814 q 733 742 733 746 q 732 733 732 738 q 748 715 732 721 q 783 702 764 708 q 817 687 801 696 q 832 658 832 678 q 824 629 832 646 q 792 597 813 604 q 739 589 771 589 l 718 589 q 706 581 713 589 q 695 560 700 572 q 687 536 690 549 q 683 514 683 524 q 690 499 683 499 q 761 476 733 492 q 789 422 789 461 q 785 392 789 408 q 768 368 781 376 q 738 356 756 360 q 700 352 719 353 q 663 351 681 351 q 649 349 651 351 q 646 336 647 347 q 642 292 643 315 q 637 247 640 268 q 626 206 633 225 q 606 176 619 188 q 546 154 578 154 q 481 180 510 154 q 446 242 453 206 q 440 288 440 265 q 436 333 439 310 q 433 349 435 347 q 418 351 431 351 q 408 351 413 351 q 396 350 403 351 l 353 350 q 342 349 347 349 q 331 349 336 349 q 316 345 318 347 q 314 332 314 343 q 312 283 313 307 q 305 240 311 258 q 285 209 299 221 q 247 196 272 197 l 243 196 q 197 209 218 196 q 160 242 176 222 q 132 285 143 263 q 115 326 121 308 q 106 337 114 333 q 87 341 97 340 q 65 342 76 342 q 46 344 54 343 q 1 371 18 351 q -17 417 -17 390 q -7 457 -17 438 q 12 469 -3 465 q 43 476 26 474 q 72 483 60 479 q 85 496 85 488 l 85 501 l 86 513 l 86 518 q 83 533 86 526 q 74 539 81 539 l 47 539 l 47 538 m 424 511 q 433 524 431 511 q 436 551 436 536 q 435 572 436 563 q 426 582 433 582 q 405 581 419 582 q 376 579 390 581 q 350 574 361 578 q 338 564 339 571 q 334 538 335 551 q 331 511 333 525 l 424 511 z "},"$":{"ha":682,"x_min":-26,"x_max":714,"o":"m 382 482 q 190 528 281 499 q 36 622 99 558 q 3 671 13 646 q -7 721 -7 696 q 15 800 -7 765 q 70 860 36 835 q 144 903 104 886 q 222 928 185 919 q 229 939 229 929 q 224 964 229 950 q 217 985 218 978 q 215 1001 215 992 q 235 1028 215 1017 q 279 1047 254 1039 q 329 1058 304 1054 q 365 1061 354 1061 q 486 1032 426 1061 q 506 997 506 1022 q 503 974 506 986 q 497 951 500 963 q 494 933 493 936 q 511 926 496 931 q 563 905 536 919 q 613 869 590 890 q 651 824 636 849 q 665 769 665 799 q 643 701 665 732 q 596 658 621 669 q 575 660 585 654 q 458 710 521 694 q 329 726 394 726 q 304 725 321 726 q 269 719 288 724 q 238 708 251 715 q 225 689 225 701 q 236 676 225 681 q 262 669 247 672 q 290 665 276 667 q 311 664 304 664 q 418 651 365 658 q 518 629 471 643 q 605 594 565 615 q 672 539 644 572 q 714 429 714 489 q 704 369 714 399 q 678 313 694 340 q 642 264 663 286 q 599 225 621 242 q 548 194 575 207 q 493 169 521 181 q 481 163 482 165 q 482 150 479 161 q 489 92 489 122 q 482 47 489 68 q 457 19 475 26 q 329 -4 396 -4 q 210 17 271 -4 q 179 53 188 24 q 171 114 171 83 q 172 133 171 125 q 174 150 174 142 q 163 163 174 156 q 137 176 151 169 q 109 189 122 183 q 90 197 96 194 q 49 228 69 210 q 11 271 28 247 q -16 322 -6 294 q -26 379 -26 349 q -12 447 -26 415 q 1 472 -8 457 q 24 499 11 486 q 51 522 36 513 q 82 532 67 532 q 107 524 94 532 q 203 483 150 493 q 322 471 256 474 l 329 471 q 382 482 360 471 z "},"%":{"ha":682,"x_min":-50,"x_max":718,"o":"m 167 -4 q 121 10 140 -4 q 88 45 101 24 q 68 92 75 67 q 61 140 61 118 q 74 231 61 188 q 104 311 88 275 q 133 376 119 343 q 158 440 146 408 q 212 553 181 499 q 272 663 243 608 q 351 798 308 732 q 439 926 394 864 q 477 975 457 951 q 517 1024 497 999 q 550 1050 529 1040 q 593 1060 571 1060 q 626 1053 610 1060 q 653 1032 642 1047 q 697 965 679 1000 q 715 879 715 929 l 715 867 q 707 846 715 854 q 557 665 628 763 q 424 462 486 568 q 308 245 363 356 q 207 24 254 135 q 201 9 204 17 q 190 -1 199 1 q 178 -4 183 -4 q 167 -4 174 -4 m 301 819 q 287 739 300 779 q 249 667 274 699 q 189 615 224 635 q 110 594 154 594 q 41 612 71 594 q -9 656 11 629 q -40 719 -29 683 q -50 789 -50 754 q -21 912 -50 854 q 49 1007 8 969 q 87 1033 68 1025 q 125 1040 106 1040 q 183 1024 156 1040 q 234 984 211 1008 q 273 932 257 960 q 294 881 289 904 q 299 850 297 865 q 301 819 301 835 m 157 836 q 136 807 147 825 q 125 769 125 789 q 131 747 125 757 q 138 742 136 742 q 149 752 143 742 q 161 776 156 763 q 170 803 167 789 q 174 826 174 818 l 174 832 q 165 840 172 840 q 157 836 161 840 m 517 3 q 453 21 481 3 q 406 67 425 39 q 378 130 388 96 q 369 196 369 164 q 381 272 369 228 q 416 355 393 315 q 471 422 439 394 q 542 450 503 450 q 601 433 572 450 q 653 390 631 415 q 692 336 676 365 q 713 282 708 307 q 718 226 718 256 q 703 141 718 181 q 663 72 689 101 q 601 24 636 42 q 525 3 567 6 l 517 3 m 592 226 q 588 241 590 233 q 581 249 586 249 q 567 240 574 249 q 554 219 560 231 q 545 197 549 208 q 542 179 542 185 q 542 170 542 175 q 544 161 542 165 q 554 151 549 151 q 567 162 561 151 q 578 185 574 172 q 588 210 583 199 q 592 226 592 222 z "},"&":{"ha":829,"x_min":-33,"x_max":861,"o":"m 493 431 q 499 451 496 440 q 501 472 501 461 q 492 500 501 492 q 459 537 476 513 q 442 588 442 561 q 457 626 442 610 q 467 628 461 631 q 494 621 479 621 q 526 625 510 621 q 577 642 551 632 q 629 660 603 651 q 681 676 656 669 q 731 682 706 682 q 781 672 757 682 q 822 645 804 663 q 851 605 840 628 q 861 556 861 582 q 854 513 861 533 q 829 476 847 492 q 820 468 828 475 q 803 454 813 461 q 785 441 794 447 q 769 435 776 435 q 761 439 764 435 q 750 449 760 443 q 727 459 740 454 q 700 468 714 464 q 674 472 686 472 q 647 453 647 472 q 642 411 647 438 q 636 365 636 385 q 644 342 636 346 q 743 318 688 318 q 822 333 783 318 q 829 335 825 335 q 844 322 838 335 q 853 291 850 308 q 857 258 856 274 q 858 235 858 242 q 847 160 858 200 q 815 85 836 119 q 761 27 793 50 q 689 4 729 4 q 649 13 672 4 q 600 35 625 22 q 553 63 575 49 q 519 86 532 76 q 508 92 511 93 q 499 83 506 90 q 410 21 463 44 q 293 -3 357 -3 q 179 19 238 -3 q 74 80 121 42 q -3 170 26 118 q -33 281 -33 222 q -21 351 -33 317 q 14 417 -8 386 q 66 469 36 447 q 129 503 96 492 q 142 508 136 506 q 154 515 149 510 q 118 613 135 560 q 101 726 101 665 q 122 847 101 788 q 179 953 142 906 q 269 1031 217 1001 q 388 1060 322 1060 q 494 1040 449 1060 q 572 983 540 1019 q 620 897 604 947 q 636 789 636 847 l 636 768 q 590 685 633 715 q 490 656 546 656 q 390 683 438 656 q 378 694 379 690 q 383 711 378 699 q 394 779 394 740 q 392 801 394 788 q 386 828 390 815 q 374 851 382 842 q 353 860 365 860 q 334 852 343 860 q 318 833 325 844 q 307 810 311 822 q 303 789 303 797 q 318 703 303 743 q 346 626 333 663 q 409 519 367 567 q 493 431 451 471 m 240 340 q 219 274 219 311 q 237 222 219 243 q 286 200 254 200 q 317 206 301 200 q 347 224 332 213 q 290 278 314 247 q 240 340 265 308 z "},"(":{"ha":464,"x_min":-28,"x_max":510,"o":"m 472 -150 q 263 -94 356 -144 q 106 38 171 -43 q 7 222 42 118 q -28 436 -28 325 q 7 651 -28 543 q 107 846 42 758 q 265 992 172 933 q 471 1060 357 1050 l 479 1060 q 488 1056 486 1060 q 490 1042 489 1053 l 490 1026 q 485 1008 490 1011 q 461 996 481 1004 q 355 915 400 969 q 281 790 310 861 q 238 633 251 718 q 224 461 224 549 q 233 321 224 390 q 259 189 242 251 q 303 74 276 126 q 363 -17 329 21 q 417 -62 390 -47 q 489 -89 444 -78 q 503 -103 497 -92 q 510 -128 510 -115 q 489 -150 510 -150 l 472 -150 z "},")":{"ha":464,"x_min":-43,"x_max":494,"o":"m -6 1061 q 203 1005 111 1056 q 360 874 296 954 q 460 690 425 793 q 494 475 494 586 q 459 261 494 368 q 359 67 424 154 q 202 -79 294 -21 q -4 -147 110 -137 q -20 -146 -18 -149 q -24 -129 -22 -143 q -24 -121 -24 -125 q -25 -114 -25 -117 q -20 -95 -25 -99 q 4 -83 -15 -92 q 110 -3 65 -57 q 185 123 156 51 q 228 279 214 194 q 243 451 243 364 q 234 592 243 522 q 208 724 225 661 q 164 839 190 786 q 104 929 138 892 q 49 974 76 960 q -22 1000 22 989 q -41 1019 -42 1006 q -43 1053 -40 1033 q -40 1060 -43 1058 q -30 1063 -36 1063 q -17 1062 -24 1063 q -6 1061 -10 1061 z "},"*":{"ha":371,"x_min":-7,"x_max":378,"o":"m 129 972 q 123 1008 126 989 q 119 1044 119 1026 q 126 1073 119 1061 q 149 1088 132 1085 q 171 1090 158 1089 q 199 1092 183 1092 q 239 1087 221 1092 q 257 1068 257 1082 q 256 1060 257 1063 q 244 1016 249 1038 q 236 972 240 994 q 277 993 253 979 q 322 1007 301 1007 q 347 994 336 1007 q 364 965 357 982 q 374 931 371 949 q 378 904 378 914 q 374 886 378 893 q 358 879 369 879 l 357 879 q 313 876 333 879 q 269 871 292 874 q 277 863 274 867 q 283 856 281 858 l 313 822 q 319 815 315 819 q 326 807 324 811 q 333 790 333 800 q 322 769 333 782 q 295 742 311 756 q 263 720 279 729 q 238 711 247 711 q 219 725 224 711 q 203 767 213 747 q 183 808 193 788 q 172 790 179 799 l 140 733 q 118 721 133 721 q 94 729 111 721 q 61 749 78 738 q 32 772 44 760 q 19 794 19 785 q 29 811 19 806 q 64 840 49 825 q 96 871 79 856 q 55 880 75 875 q 13 889 35 885 q -7 924 -7 893 q -3 956 -7 939 q 8 987 1 972 q 24 1011 15 1001 q 42 1021 33 1021 q 51 1018 49 1021 q 90 994 71 1004 q 129 972 110 983 z "},"+":{"ha":529,"x_min":-4,"x_max":536,"o":"m 365 246 q 363 210 364 228 q 361 174 361 192 l 361 154 q 349 133 361 139 q 321 126 338 126 q 281 132 301 126 q 249 142 260 138 q 206 169 222 153 q 181 206 190 185 q 167 255 171 228 q 160 313 163 282 q 146 319 160 319 q 106 313 129 319 q 74 303 82 306 q 60 300 65 300 q 34 310 46 300 q 14 335 22 319 q 1 372 6 351 q -4 413 -4 392 q 7 468 -4 443 q 43 500 18 493 q 96 514 69 507 q 150 525 122 521 q 167 530 165 528 q 171 546 168 532 q 176 597 174 567 q 183 658 178 628 q 199 712 189 688 q 226 744 208 736 q 263 757 242 753 q 304 761 283 761 q 374 745 343 761 q 404 693 404 729 q 403 681 404 685 q 392 614 397 649 q 386 547 386 579 q 395 536 386 540 q 417 529 404 532 q 442 525 429 526 q 460 521 454 524 q 510 490 488 510 q 535 436 532 471 l 536 432 q 533 396 536 415 q 522 360 529 376 q 503 332 515 343 q 474 321 490 321 l 469 322 q 425 328 446 326 q 383 332 404 331 q 368 331 371 333 q 365 315 365 329 l 365 246 z "},",":{"ha":189,"x_min":-4,"x_max":194,"o":"m 188 139 q 193 110 192 124 q 194 81 194 96 q 169 -22 194 25 q 101 -101 143 -69 q 89 -107 96 -104 q 75 -110 82 -110 q 60 -106 67 -110 q 54 -92 54 -101 q 54 -85 54 -89 q 56 -79 54 -82 q 67 -55 58 -72 q 76 -22 76 -37 q 65 -6 76 -10 q -4 83 -4 15 l -4 97 q 81 203 1 178 q 92 206 86 206 q 103 206 97 206 q 155 187 131 206 q 188 139 179 168 z "},"-":{"ha":513,"x_min":0,"x_max":514,"o":"m 7 478 q 31 499 10 490 q 84 515 53 508 q 151 525 115 521 q 221 531 188 529 q 280 534 254 533 q 314 535 306 535 q 389 531 353 535 q 453 516 425 526 q 497 488 481 506 q 514 443 514 471 l 514 436 q 508 398 513 418 q 496 361 504 378 q 474 333 488 344 q 440 322 460 322 l 436 322 q 365 326 400 325 q 294 328 331 328 q 171 324 232 328 q 53 311 110 319 l 46 311 q 9 341 18 311 q 0 407 0 371 q 7 478 0 446 z "},".":{"ha":188,"x_min":-1,"x_max":188,"o":"m 110 200 q 169 169 151 193 q 188 117 188 146 q 179 74 188 96 q 158 34 171 51 q 126 6 144 17 q 88 -6 108 -6 q 52 4 68 -6 q 24 29 36 14 q 6 63 13 44 q -1 99 -1 81 q 24 170 -1 139 q 93 201 49 201 q 110 200 104 201 z "},"/":{"ha":582,"x_min":-35,"x_max":619,"o":"m 71 -4 q 25 10 44 -4 q -8 45 6 24 q -28 92 -21 67 q -35 140 -35 118 q -22 231 -35 188 q 8 311 -8 275 q 36 376 24 343 q 61 440 49 408 q 115 553 83 499 q 176 663 147 608 q 256 798 213 732 q 343 926 299 864 q 381 975 361 951 q 421 1024 401 999 q 454 1050 433 1040 q 497 1060 475 1060 q 530 1053 514 1060 q 557 1032 546 1047 q 601 965 583 1000 q 619 879 619 929 l 619 867 q 611 846 619 854 q 461 665 532 763 q 328 462 390 568 q 213 245 267 356 q 111 24 158 135 q 106 9 108 17 q 94 -1 103 1 q 83 -4 88 -4 q 71 -4 78 -4 z "},":":{"ha":186,"x_min":-6,"x_max":193,"o":"m 193 651 q 185 619 192 636 q 167 587 179 601 q 140 563 156 572 q 106 553 125 553 q 35 582 67 553 q 4 651 4 611 q 22 708 4 682 q 71 743 40 735 q 96 747 83 747 q 164 719 136 747 q 193 651 192 692 m 106 429 q 165 399 147 422 q 183 346 183 375 q 175 303 183 325 q 153 263 167 281 q 122 235 140 246 q 83 224 104 224 q 48 233 64 224 q 20 258 32 243 q 1 292 8 274 q -6 328 -6 310 q 19 399 -6 368 q 89 431 44 431 q 106 429 100 431 z "},";":{"ha":189,"x_min":-6,"x_max":193,"o":"m 88 553 q 23 581 44 553 q 1 649 1 610 q 27 720 1 690 q 93 750 53 750 q 163 725 132 750 q 193 660 193 700 q 159 581 193 610 q 88 553 125 553 m 186 368 q 192 339 190 353 q 193 310 193 325 q 167 207 193 254 q 100 128 142 160 q 88 122 94 125 q 74 119 81 119 q 59 124 65 119 q 53 138 53 128 q 53 144 53 140 q 54 150 53 147 q 66 174 57 157 q 75 207 75 192 q 64 224 75 219 q -6 313 -6 244 l -6 326 q 79 432 0 407 q 101 436 90 436 q 153 417 129 436 q 186 368 178 397 z "},"<":{"ha":393,"x_min":-44,"x_max":433,"o":"m 310 64 q 290 68 299 64 q 275 78 282 72 q 131 191 200 133 q 1 319 61 249 q -9 332 -1 324 q -24 351 -17 340 q -38 373 -32 361 q -44 393 -44 385 q -39 406 -44 401 q -36 410 -36 408 q -12 460 -31 429 q 34 529 7 492 q 94 607 61 567 q 158 684 126 647 q 220 751 190 721 q 271 796 250 781 q 293 810 289 810 q 301 806 297 810 q 314 796 304 803 q 382 734 353 768 q 429 653 411 700 q 424 631 433 640 q 365 572 392 603 q 310 511 338 542 q 291 492 304 506 q 265 461 278 478 q 242 428 251 444 q 232 399 232 411 q 242 378 232 392 q 269 349 253 365 q 306 316 286 333 q 345 283 326 299 q 379 256 364 268 q 401 240 394 244 q 422 218 422 226 q 409 181 422 207 q 378 130 396 156 q 342 84 361 104 q 310 64 322 64 z "},"=":{"ha":513,"x_min":0,"x_max":514,"o":"m 7 631 q 31 652 10 643 q 84 667 53 661 q 151 678 115 674 q 221 684 188 682 q 280 687 254 686 q 314 688 306 688 q 389 683 353 688 q 453 669 425 679 q 497 641 481 658 q 514 596 514 624 l 514 589 q 508 551 513 571 q 496 514 504 531 q 474 486 488 497 q 440 475 460 475 l 436 475 q 365 479 400 478 q 294 481 331 481 q 171 476 232 481 q 53 464 110 472 l 46 464 q 9 494 18 464 q 0 560 0 524 q 7 631 0 599 m 7 381 q 31 402 10 393 q 84 417 53 411 q 151 428 115 424 q 221 434 188 432 q 280 437 254 436 q 314 438 306 438 q 389 433 353 438 q 453 419 425 429 q 497 391 481 408 q 514 346 514 374 l 514 339 q 508 301 513 321 q 496 264 504 281 q 474 236 488 247 q 440 225 460 225 l 436 225 q 365 229 400 228 q 294 231 331 231 q 171 226 232 231 q 53 214 110 222 l 46 214 q 9 244 18 214 q 0 310 0 274 q 7 381 0 349 z "},">":{"ha":393,"x_min":-39,"x_max":439,"o":"m 85 801 q 104 797 96 801 q 119 788 113 793 q 264 674 194 732 q 393 544 333 615 q 403 532 396 540 q 419 513 411 524 q 433 492 426 503 q 439 472 439 481 q 433 458 439 463 q 431 456 431 456 q 392 383 422 428 q 326 291 363 338 q 253 203 289 244 q 199 143 218 163 q 162 104 179 124 q 124 69 144 85 q 101 56 106 56 q 93 59 97 56 q 79 69 89 63 q 12 131 40 97 q -35 213 -17 165 q -29 233 -39 224 q 30 292 3 261 q 85 354 57 324 q 103 374 90 360 q 130 404 117 388 q 153 438 143 421 q 163 467 163 454 q 140 500 163 476 q 88 549 117 524 q 31 596 58 574 q -7 625 3 618 q -23 636 -18 632 q -28 646 -28 640 q -15 685 -28 658 q 17 737 -1 711 q 53 782 35 763 q 85 801 72 801 z "},"?":{"ha":632,"x_min":-22,"x_max":658,"o":"m 46 997 q 169 1054 99 1035 q 318 1074 240 1074 q 429 1063 374 1074 q 533 1029 485 1051 q 628 942 599 1000 q 658 815 658 885 q 637 698 658 757 q 575 593 615 639 q 501 515 539 553 q 417 449 463 478 q 396 419 400 439 q 361 360 386 382 q 299 329 336 338 q 285 327 292 328 q 272 326 279 326 q 222 336 246 326 q 178 362 197 346 q 148 400 160 378 q 136 447 136 422 q 165 521 136 483 q 213 567 186 547 q 268 606 240 588 q 322 646 296 625 q 368 693 349 667 q 374 707 374 700 q 355 724 374 719 q 319 728 336 728 q 312 727 315 728 q 306 726 308 726 q 233 712 268 722 q 165 681 197 701 q 107 663 138 663 q 49 680 74 663 q 9 723 25 697 q -15 780 -7 749 q -22 839 -22 811 q -3 932 -22 889 q 46 997 15 975 m 282 -12 q 218 -1 250 -12 q 160 28 186 10 q 119 75 135 47 q 103 136 103 103 q 115 197 103 168 q 149 248 128 226 q 198 283 169 269 q 258 299 226 297 l 261 299 l 267 297 q 330 287 299 297 q 388 257 361 276 q 430 210 414 238 q 446 147 446 182 q 432 87 446 115 q 395 37 418 58 q 342 2 372 15 q 282 -12 313 -11 z "},"@":{"ha":854,"x_min":-21,"x_max":881,"o":"m 524 715 q 558 740 539 732 q 599 749 578 749 q 638 741 618 749 q 675 718 658 733 q 681 706 681 714 q 670 673 681 690 q 656 644 660 656 q 640 594 647 621 q 632 539 632 567 q 633 519 632 531 q 638 496 635 507 q 648 477 642 485 q 665 469 654 469 q 697 489 685 469 q 717 534 710 508 q 728 586 725 560 q 731 625 731 613 q 711 721 731 678 q 656 796 692 764 q 569 845 619 828 q 458 863 519 863 q 440 863 449 863 q 421 861 431 863 q 303 824 357 856 q 213 745 250 793 q 154 638 175 697 q 133 517 133 578 q 141 447 133 479 q 171 383 149 415 l 186 358 q 194 347 189 356 q 260 291 218 310 q 351 272 303 272 q 425 283 389 272 q 489 318 461 294 q 518 331 504 331 q 557 309 542 331 q 572 264 572 288 q 556 182 572 218 q 513 121 540 146 q 449 83 486 96 q 371 69 413 69 q 210 109 282 69 q 86 213 138 149 q 7 358 35 276 q -21 522 -21 439 q 15 714 -21 622 q 114 875 50 806 q 265 986 178 944 q 456 1028 351 1028 l 471 1026 l 478 1026 q 631 999 564 1021 q 746 926 697 976 q 841 785 801 868 q 881 607 881 701 q 868 507 881 556 q 829 419 856 458 q 761 356 803 381 q 663 326 719 331 q 658 326 660 326 q 653 325 656 325 q 568 353 604 325 q 510 413 532 381 q 438 349 481 378 q 347 319 396 319 q 280 338 310 319 q 229 386 250 357 q 197 451 208 415 q 186 519 186 486 q 201 610 186 565 q 241 692 215 656 q 301 753 267 728 q 376 782 336 778 l 392 782 q 464 765 432 782 q 518 719 496 747 q 524 715 521 717 m 403 506 q 423 514 410 506 q 449 534 436 522 q 470 558 461 546 q 479 579 479 571 q 464 603 479 593 q 432 613 449 613 q 411 605 421 613 q 394 585 401 597 q 383 561 388 574 q 379 539 379 549 q 385 517 379 528 q 403 506 392 506 z "},"A":{"ha":772,"x_min":-33,"x_max":814,"o":"m 129 664 q 120 667 125 667 q 111 668 115 667 q 70 688 86 671 q 44 729 54 704 q 29 785 33 754 q 25 846 25 815 q 26 882 25 865 q 31 915 28 899 q 78 1001 39 969 q 174 1049 118 1032 q 295 1072 231 1065 q 417 1082 360 1078 q 444 1084 431 1083 q 471 1085 457 1085 q 569 1076 521 1085 q 656 1049 618 1068 q 717 999 694 1031 q 740 921 740 967 l 740 910 q 661 776 735 822 q 650 767 650 769 q 656 754 650 764 q 763 482 724 628 q 813 156 801 336 l 813 150 l 814 142 q 806 75 814 108 q 782 15 799 42 q 739 -28 765 -11 q 674 -46 713 -44 q 633 -48 653 -47 q 593 -49 613 -49 q 509 -33 544 -49 q 468 36 474 -18 q 464 83 467 51 q 461 147 461 115 q 465 201 461 178 q 479 229 468 225 q 503 238 492 233 q 528 250 515 243 l 431 250 q 349 251 390 250 q 265 256 308 253 q 281 247 269 251 q 302 239 292 243 q 321 230 313 235 q 329 219 329 225 q 324 151 329 190 q 305 78 318 113 q 270 19 292 43 q 218 -6 249 -6 l 210 -6 q 115 8 158 -6 q 40 49 72 22 q -12 113 7 75 q -33 200 -32 151 l -33 210 q -30 258 -33 233 q -24 306 -26 282 q -3 404 -18 357 q 33 495 13 451 q 79 581 54 539 q 129 661 104 622 l 129 664 m 456 438 q 449 494 456 454 q 433 578 442 535 q 415 658 424 622 q 400 701 406 693 q 388 579 396 639 q 372 458 379 519 q 372 454 372 456 q 371 451 371 453 q 379 446 371 447 q 417 440 399 443 q 456 432 436 436 l 456 438 z "},"B":{"ha":740,"x_min":-21,"x_max":757,"o":"m 72 604 q 70 607 71 607 q 68 608 69 607 l 64 610 q 0 665 21 621 q -21 763 -21 710 q -2 860 -21 819 q 58 942 17 901 q 223 1051 129 1010 q 436 1092 317 1092 q 467 1091 451 1092 q 499 1089 483 1090 q 601 1061 554 1083 q 683 1003 649 1039 q 738 920 718 968 q 757 815 757 872 l 757 799 q 733 688 754 739 q 679 592 711 636 q 610 512 647 549 q 536 443 572 475 q 535 440 535 442 q 542 438 538 438 q 550 436 546 438 q 626 413 589 429 q 692 372 663 397 q 739 311 721 346 q 757 233 757 276 q 710 103 757 158 q 594 13 663 49 q 448 -40 525 -22 q 310 -57 371 -57 q 235 -50 271 -57 q 172 -27 199 -43 q 128 16 144 -11 q 111 82 111 43 q 112 95 111 90 q 113 104 113 100 q 99 119 113 113 q 25 192 46 144 q 4 300 4 240 q 11 381 4 339 q 28 462 18 422 q 50 538 38 501 q 72 604 63 575 m 317 494 q 350 519 332 506 q 383 549 368 532 q 409 585 399 565 q 419 631 419 606 q 401 659 419 651 q 357 667 383 667 q 310 663 335 667 q 266 653 286 658 q 233 643 246 649 q 219 635 219 638 q 244 638 232 636 q 269 639 257 639 l 275 639 l 286 638 l 292 638 q 304 635 303 636 q 307 622 306 633 q 311 569 310 596 q 314 517 313 543 l 314 508 q 317 494 314 500 m 319 188 q 319 178 319 182 q 318 171 318 174 q 326 164 318 164 l 332 164 q 355 167 339 164 q 388 174 371 169 q 419 185 406 179 q 432 197 432 190 q 418 210 432 204 q 387 219 404 215 q 353 226 369 224 q 333 228 338 228 q 315 219 315 228 q 317 203 315 211 q 319 188 318 194 z "},"C":{"ha":626,"x_min":-28,"x_max":642,"o":"m 251 729 q 269 702 258 722 q 279 668 279 682 q 274 657 279 658 q 242 610 246 642 q 238 551 238 579 q 251 457 238 501 q 292 379 265 413 q 358 326 319 346 q 449 307 397 307 q 506 313 478 307 q 533 318 519 315 q 560 321 547 321 q 593 310 579 321 q 615 282 607 299 q 628 246 624 265 q 632 211 632 226 q 596 116 632 158 q 508 44 560 74 q 399 -1 457 15 q 299 -17 342 -17 q 146 31 208 -17 q 45 149 83 78 q -10 304 7 219 q -28 464 -28 389 q -11 641 -28 553 q 38 808 6 729 q 91 910 58 860 q 169 1001 124 961 q 270 1067 214 1042 q 393 1092 326 1092 l 400 1092 q 511 1058 465 1090 q 586 972 557 1025 q 628 851 615 918 q 642 714 642 785 q 629 574 642 640 q 608 513 624 543 q 570 457 593 482 q 517 417 547 432 q 453 401 488 401 q 381 421 419 401 q 335 475 347 438 q 318 556 324 513 q 305 644 313 600 q 272 717 297 688 q 265 724 269 721 q 251 729 260 728 z "},"D":{"ha":721,"x_min":-28,"x_max":738,"o":"m 738 651 q 694 362 735 492 q 581 135 654 232 q 536 88 564 113 q 475 43 508 64 q 403 9 442 22 q 328 -4 365 -4 q 270 6 299 -4 q 218 39 242 15 q 206 56 211 46 q 195 77 200 67 q 184 96 190 88 q 169 106 178 104 q 72 172 99 125 q 44 297 44 219 q 45 327 44 313 q 47 358 46 342 q 63 467 53 413 q 85 574 74 521 q 87 584 86 579 q 81 593 88 589 q 38 631 58 608 q 3 683 18 654 q -19 743 -11 711 q -28 808 -28 775 q 11 930 -28 879 q 108 1014 50 981 q 235 1063 167 1047 q 361 1079 303 1079 q 529 1048 458 1079 q 647 960 600 1017 q 715 825 693 904 q 738 651 738 746 m 353 339 q 392 378 374 354 q 426 431 411 403 q 449 492 440 460 q 457 556 457 524 q 453 595 457 575 q 442 632 450 615 q 418 659 433 649 q 379 669 403 669 q 308 656 346 669 q 249 632 271 642 l 249 631 q 247 628 247 629 l 269 628 q 307 622 292 628 q 326 597 322 617 q 344 472 340 533 q 353 339 349 410 z "},"E":{"ha":625,"x_min":-24,"x_max":642,"o":"m 136 482 q 75 512 104 496 q 24 549 46 528 q -10 600 3 571 q -24 669 -24 629 q -5 762 -24 714 q 47 856 14 810 q 122 945 79 903 q 211 1019 164 988 q 308 1070 258 1051 q 403 1089 357 1089 q 506 1066 461 1089 q 581 1005 551 1043 q 626 917 611 967 q 642 811 642 867 q 635 735 642 781 q 612 647 628 689 q 569 574 596 604 q 500 543 542 543 q 417 572 457 543 q 363 649 378 601 q 346 687 357 667 q 314 707 335 707 q 297 703 306 707 q 279 682 279 696 q 292 658 279 669 q 314 640 306 646 q 370 590 343 622 q 397 521 397 557 q 388 483 397 501 q 356 449 379 465 q 342 439 351 446 q 322 422 332 432 q 305 402 313 413 q 297 382 297 392 q 305 366 297 372 q 322 360 313 360 q 345 369 333 360 q 368 392 357 379 q 389 418 379 406 q 406 436 399 431 q 483 463 444 463 q 549 443 521 463 q 594 394 576 424 q 622 330 613 365 q 631 263 631 294 q 597 151 631 200 q 510 70 563 103 q 397 21 458 38 q 282 4 336 4 q 125 36 201 4 q 71 69 97 49 q 24 115 44 89 q -8 174 4 142 q -21 239 -21 206 q -7 306 -21 271 q 28 372 7 340 q 76 431 50 404 q 128 475 103 458 q 131 478 129 476 q 136 482 133 479 z "},"F":{"ha":581,"x_min":-49,"x_max":613,"o":"m 274 381 q 318 372 297 374 q 358 367 339 371 q 394 356 378 364 q 422 329 410 349 q 447 293 433 311 q 471 255 460 275 q 490 213 482 235 q 497 163 497 190 q 477 90 497 121 q 426 40 457 60 q 356 10 394 19 q 282 0 318 0 q 201 15 239 0 q 140 61 164 29 q 72 185 101 117 q 35 338 42 254 q 33 348 35 343 q 24 354 32 353 q -5 367 8 357 q -28 393 -18 378 q -43 426 -37 408 q -49 463 -49 444 q -38 506 -49 486 q -3 536 -28 526 q 20 548 15 543 q 25 565 25 553 l 25 579 q 24 606 24 593 q 24 633 24 619 q 40 814 24 732 q 96 956 57 896 q 198 1055 135 1017 q 354 1104 261 1093 q 373 1106 364 1106 q 390 1107 382 1107 q 481 1089 440 1107 q 551 1040 522 1071 q 597 965 581 1008 q 613 871 613 922 q 603 788 613 833 q 572 705 593 743 q 519 641 551 667 q 442 615 488 615 q 371 631 413 615 q 297 738 297 657 q 299 749 297 743 q 293 756 300 754 l 290 756 q 276 744 279 756 q 272 713 272 732 q 277 658 272 686 q 285 619 282 629 q 290 606 288 608 q 304 604 293 604 l 321 604 q 399 599 360 604 q 468 579 438 593 q 518 541 499 565 q 538 479 538 517 l 538 471 q 506 417 536 433 q 435 396 476 401 q 350 389 394 390 q 274 381 306 388 z "},"G":{"ha":654,"x_min":-29,"x_max":679,"o":"m 285 621 q 458 665 365 665 q 528 660 493 665 q 601 643 564 654 q 638 609 622 638 q 662 545 653 581 q 675 474 671 510 q 679 417 679 439 q 654 274 679 349 q 584 138 629 200 q 476 35 539 75 q 338 -6 414 -6 q 219 21 275 -6 q 126 89 164 47 q 13 269 54 169 q -29 504 -29 368 q -10 680 -29 588 q 48 856 8 772 q 149 1005 88 940 q 299 1096 211 1069 q 338 1105 318 1103 q 378 1107 358 1107 q 479 1087 431 1107 q 565 1032 528 1067 q 623 949 601 997 q 644 846 644 901 q 644 838 644 842 q 643 828 643 833 q 610 751 640 782 q 539 719 581 719 q 522 721 528 719 q 463 725 492 725 q 285 621 336 725 m 236 399 q 242 359 238 381 q 254 319 246 338 q 277 287 263 300 q 315 274 292 274 q 345 283 331 274 q 368 308 360 292 q 374 322 371 314 q 376 338 376 331 q 364 354 376 353 q 326 356 346 356 q 290 360 307 357 q 259 372 272 364 q 240 396 246 381 l 239 397 q 236 399 238 399 z "},"H":{"ha":875,"x_min":-43,"x_max":919,"o":"m 643 272 q 460 257 551 260 q 276 244 368 254 q 319 234 297 239 q 363 225 340 229 q 369 208 369 222 q 363 164 369 192 q 346 108 356 136 q 328 58 336 81 q 318 32 321 36 q 285 1 307 11 q 238 -8 264 -8 q 167 7 201 -8 q 119 46 133 22 q 86 140 96 86 q 67 243 76 193 q 49 264 65 258 q -19 310 4 276 q -43 401 -43 343 q -41 434 -43 419 q -33 458 -39 449 q -14 474 -26 468 q 21 481 -1 479 q 32 490 32 481 l 32 493 q 24 587 26 539 q 21 683 21 635 q 33 868 21 779 q 76 1024 46 957 q 141 1092 97 1069 q 233 1114 185 1114 q 345 1084 293 1114 q 411 996 397 1054 q 423 918 419 958 q 426 836 426 878 q 419 677 426 757 q 406 522 411 597 l 406 515 q 413 510 406 510 l 418 510 l 479 511 q 492 513 490 511 q 493 526 493 515 q 503 781 494 657 q 535 1021 513 904 q 576 1081 543 1064 q 654 1099 610 1099 q 751 1083 701 1099 q 816 1035 799 1068 q 836 946 833 1001 q 840 725 840 838 q 836 617 840 671 q 832 510 832 563 q 846 482 832 488 q 876 465 860 476 q 908 432 896 451 q 919 389 919 413 q 911 346 919 369 q 892 327 907 333 q 863 315 878 321 q 835 303 847 310 q 822 283 822 296 q 817 217 821 253 q 806 147 814 181 q 786 85 799 113 q 753 44 774 58 q 709 24 732 31 q 664 18 686 18 q 583 40 619 18 q 532 99 547 63 q 526 117 531 104 q 518 147 522 131 q 510 181 514 164 q 507 210 507 197 q 517 232 507 231 q 584 244 544 235 q 643 272 624 254 z "},"I":{"ha":346,"x_min":-18,"x_max":367,"o":"m 256 701 q 263 696 260 699 q 311 656 294 681 q 335 597 328 631 q 358 426 351 519 q 367 240 364 332 l 367 214 q 352 98 367 149 q 289 24 338 47 q 217 -3 257 8 q 138 -14 176 -14 q 58 4 88 -14 q 13 53 28 22 q -6 122 -1 83 q -10 201 -10 160 q -7 290 -10 246 q -1 375 -4 335 q 8 461 1 415 q 26 550 14 507 q 59 628 39 593 q 108 681 79 664 q 110 688 111 683 q 61 724 82 699 q 26 783 40 750 q 1 853 11 817 q -15 921 -10 890 q -17 935 -17 928 q -18 950 -18 943 q 1 1026 -18 994 q 51 1078 21 1058 q 120 1108 82 1099 q 197 1118 158 1118 q 286 1103 243 1118 q 331 1075 318 1092 q 343 1025 343 1058 l 343 1017 q 337 919 343 968 q 321 824 331 869 q 301 756 314 788 q 256 701 288 725 z "},"J":{"ha":642,"x_min":-32,"x_max":658,"o":"m 331 611 q 319 678 331 644 q 299 740 307 711 q 278 750 297 750 q 252 747 267 750 q 222 740 238 744 q 192 733 206 736 q 167 731 178 731 q 153 732 156 731 q 72 800 97 760 q 46 903 46 840 q 74 1006 46 960 q 150 1064 101 1053 q 275 1088 207 1078 q 413 1099 343 1099 q 560 1081 493 1099 q 613 1033 594 1071 q 631 953 631 994 q 631 942 631 947 q 629 931 631 936 q 614 883 625 901 q 585 850 603 864 q 544 826 567 836 q 497 807 522 817 q 511 804 506 804 q 556 814 531 804 q 594 828 581 824 q 607 831 606 831 q 617 817 611 831 q 648 680 638 751 q 658 533 658 608 q 641 347 658 438 q 588 182 624 257 q 534 103 567 139 q 461 40 501 67 q 375 -1 421 14 q 281 -15 329 -15 q 152 9 210 -15 q 53 76 94 33 q -10 177 13 118 q -32 306 -32 236 q -27 377 -32 338 q -12 458 -22 417 q 15 540 -1 500 q 56 612 32 581 q 112 662 81 643 q 182 681 143 681 l 200 681 q 306 631 257 675 q 317 619 311 625 q 331 611 322 614 m 351 494 l 349 494 q 332 454 343 472 q 310 419 321 436 q 268 354 289 389 q 247 274 247 319 l 247 258 q 260 234 249 243 q 283 225 271 225 q 311 236 300 225 q 335 278 326 251 q 349 335 344 304 q 353 399 353 365 q 354 461 354 432 l 354 475 q 351 494 354 488 z "},"K":{"ha":731,"x_min":-12,"x_max":783,"o":"m 467 436 q 481 440 472 436 q 500 449 490 444 q 519 458 510 454 q 535 463 529 463 q 543 458 542 463 q 580 412 558 433 q 626 372 601 390 q 678 336 651 353 q 729 306 704 319 q 770 257 757 289 q 783 188 783 225 q 772 114 783 150 q 739 54 760 78 q 683 1 717 29 q 606 -26 650 -26 q 572 -21 588 -26 q 499 22 529 -8 q 447 90 468 51 q 408 173 425 129 q 376 258 392 217 q 360 308 367 283 q 349 361 353 333 q 344 374 346 372 q 331 374 342 376 q 309 370 325 372 q 276 365 293 368 q 247 358 260 363 q 233 350 235 354 q 252 348 243 349 q 271 347 261 347 l 288 349 l 300 349 q 311 347 310 349 q 311 336 313 346 q 310 317 310 326 q 310 296 310 307 q 312 224 310 263 q 314 146 314 185 q 310 76 314 107 q 292 23 306 44 q 253 -10 278 1 q 186 -21 228 -21 q 124 -12 154 -21 q 70 15 94 -3 q 29 56 46 32 q 7 111 13 81 q -8 234 -4 169 q -12 365 -12 299 q -11 460 -12 413 q -7 554 -10 507 q 13 797 -1 681 q 65 1011 26 914 q 80 1042 71 1025 q 101 1073 89 1058 q 130 1097 114 1088 q 165 1108 146 1107 l 168 1108 l 174 1110 q 263 1086 221 1110 q 315 1011 306 1063 q 328 890 326 953 q 331 763 331 828 l 331 676 q 338 683 336 679 q 342 689 339 686 q 394 805 374 738 q 414 947 414 872 q 411 992 414 969 q 404 1036 408 1014 q 403 1049 403 1040 q 431 1092 403 1079 q 493 1106 458 1106 q 588 1080 546 1106 q 657 1014 629 1054 q 699 924 685 974 q 714 826 714 875 q 701 735 714 781 q 660 650 688 690 q 574 541 619 590 q 472 446 528 492 q 467 442 469 443 q 464 436 465 440 l 467 436 z "},"L":{"ha":561,"x_min":-17,"x_max":622,"o":"m 375 275 q 365 274 369 275 q 356 274 360 274 q 338 276 346 274 q 322 285 331 278 q 333 256 324 264 q 356 247 342 247 q 387 253 369 247 q 420 269 404 260 q 449 286 436 278 q 465 299 461 294 q 503 313 481 313 q 548 302 526 313 q 586 274 569 292 q 613 233 603 256 q 622 188 622 211 q 613 132 622 160 q 587 79 603 104 q 550 35 571 54 q 508 4 529 15 q 417 -29 464 -18 q 321 -40 371 -40 q 210 -28 268 -40 q 158 0 181 -22 q 117 51 135 22 q 88 112 100 81 q 67 169 75 143 q 41 245 56 208 q 18 322 26 282 q -17 661 -17 483 q -13 771 -17 715 q -3 883 -10 826 q 17 973 4 931 q 55 1048 31 1015 q 117 1100 79 1081 q 207 1119 154 1119 q 286 1097 256 1119 q 334 1035 317 1074 q 358 947 351 997 q 364 843 364 897 q 360 729 364 786 q 354 621 357 672 q 352 569 353 596 q 351 517 351 543 q 356 391 351 453 q 375 275 361 329 z "},"M":{"ha":889,"x_min":-19,"x_max":900,"o":"m 469 772 q 503 866 486 818 q 544 956 519 914 q 603 1029 568 999 q 688 1069 638 1060 q 701 1072 694 1071 q 715 1074 708 1074 q 792 1043 761 1074 q 844 963 824 1013 q 876 853 865 914 q 893 730 888 792 q 899 613 899 668 q 900 521 900 558 q 889 310 900 411 q 854 115 878 210 q 794 19 839 57 q 678 -18 749 -18 q 551 31 590 -18 q 511 168 511 81 q 518 241 511 204 q 540 310 525 278 q 557 344 547 325 q 576 385 567 364 q 591 428 585 406 q 597 474 597 451 q 597 488 597 481 q 594 503 597 496 q 585 514 592 514 q 567 503 576 514 q 554 489 557 493 q 533 449 542 471 q 518 403 525 426 q 504 356 511 379 q 488 311 497 332 q 470 288 481 294 q 449 282 460 282 q 406 300 426 282 q 378 336 386 318 q 361 378 368 356 q 347 424 354 401 q 331 468 340 447 q 310 506 322 489 q 300 511 306 511 q 290 505 294 511 q 284 490 286 499 q 281 474 282 482 q 281 461 281 465 q 292 408 281 435 q 312 358 301 386 q 331 300 322 331 q 346 238 340 269 q 351 176 351 207 q 310 61 351 106 q 199 17 269 17 q 112 49 149 17 q 51 130 75 82 q 13 231 26 178 q -7 324 -1 283 q -19 519 -19 419 q -4 732 -19 629 q 43 917 11 835 q 81 985 58 953 q 126 1049 103 1017 q 174 1082 143 1071 q 239 1093 206 1093 q 298 1083 271 1093 q 343 1053 325 1074 q 410 940 383 1004 q 456 810 436 876 q 460 792 458 801 q 469 772 463 783 z "},"N":{"ha":811,"x_min":-8,"x_max":821,"o":"m -8 540 q -7 661 -7 603 q -4 775 -7 719 q 8 882 -1 831 q 39 982 18 933 q 82 1044 54 1019 q 146 1083 110 1068 l 149 1085 q 170 1088 160 1088 q 192 1088 181 1088 q 261 1071 229 1088 q 313 1010 293 1054 q 375 842 349 926 q 432 672 401 757 q 456 628 439 653 q 496 600 472 604 l 500 600 q 513 615 513 600 q 509 633 513 624 q 503 649 506 643 q 457 747 472 696 q 442 850 442 799 q 453 935 442 890 q 490 1018 465 981 q 549 1080 514 1056 q 632 1104 585 1104 q 691 1090 663 1104 q 742 1052 719 1075 q 779 1001 764 1029 q 799 943 794 972 q 815 801 810 874 q 821 654 821 729 q 814 455 821 554 q 796 261 807 356 q 774 155 789 208 q 739 57 758 101 q 693 -1 722 17 q 631 -18 664 -18 q 535 8 579 -18 q 471 82 490 33 q 446 152 457 115 q 424 224 435 189 q 399 294 413 260 q 368 358 386 329 q 356 380 364 365 q 338 409 347 394 q 317 435 328 424 q 294 446 306 446 l 289 446 q 281 440 283 444 q 279 432 279 436 q 285 414 279 424 q 293 397 290 404 q 347 289 319 349 q 374 165 374 229 q 360 92 374 129 q 322 26 346 56 q 265 -22 299 -3 q 193 -40 232 -40 q 119 -22 150 -40 q 67 26 88 -4 q 33 95 46 57 q 14 174 21 133 q 4 254 7 215 q 0 325 1 293 q -6 431 -3 378 q -8 540 -8 483 z "},"O":{"ha":679,"x_min":-22,"x_max":699,"o":"m -22 497 q 14 785 -22 654 q 124 1010 50 917 q 218 1079 158 1054 q 343 1104 278 1104 q 435 1089 390 1104 q 514 1039 479 1074 q 599 924 564 989 q 656 786 633 858 q 688 639 678 714 q 699 494 699 564 q 687 352 699 421 q 650 224 675 283 q 588 120 625 165 q 500 47 550 75 q 419 5 463 26 q 321 -17 375 -17 q 306 -16 314 -17 q 289 -14 297 -15 q 151 45 210 -1 q 55 161 93 92 q -3 316 17 231 q -22 489 -22 401 l -22 497 m 415 851 q 399 853 410 853 q 353 839 372 853 q 321 802 333 825 q 302 749 308 779 q 296 686 296 718 q 301 632 296 665 q 317 566 306 599 q 347 510 328 533 q 394 486 365 486 q 420 498 410 486 q 437 528 431 510 q 445 568 443 546 q 447 610 447 590 l 447 624 q 442 667 447 643 q 429 715 438 692 q 408 758 421 739 q 376 783 394 776 q 368 794 368 786 q 374 811 368 801 q 388 829 379 821 q 403 844 396 838 q 415 851 411 850 z "},"P":{"ha":692,"x_min":-29,"x_max":714,"o":"m 144 618 q 74 607 104 607 q 27 618 46 607 q -4 647 8 629 q -22 689 -17 665 q -29 736 -28 713 l -29 754 q 8 903 -29 838 q 106 1016 46 969 q 242 1088 167 1063 q 393 1113 317 1113 q 523 1090 464 1113 q 624 1028 582 1068 q 690 930 667 988 q 714 803 714 872 q 694 681 714 739 q 650 574 675 622 q 609 517 633 546 q 556 463 585 489 q 497 416 528 438 q 438 381 467 394 q 427 374 428 376 q 429 361 426 372 q 458 277 440 322 q 475 183 475 232 q 455 102 475 140 q 402 35 435 64 q 329 -10 369 7 q 247 -26 289 -26 q 160 0 196 -26 q 103 67 125 26 q 72 156 82 108 q 63 246 63 204 q 70 345 63 294 q 90 444 78 396 q 116 536 101 492 q 144 618 131 581 m 379 531 q 409 557 393 542 q 438 591 425 572 q 460 629 451 610 q 468 668 468 649 q 450 710 468 694 q 404 725 432 725 q 379 722 396 725 q 345 715 363 719 q 315 703 328 710 q 303 692 303 697 q 322 694 313 693 q 342 696 332 694 q 359 694 357 697 q 361 676 361 692 l 361 665 q 367 599 361 632 q 379 531 372 567 z "},"Q":{"ha":669,"x_min":-25,"x_max":688,"o":"m 425 160 q 447 113 435 135 q 472 69 458 92 q 479 56 479 58 q 471 44 479 53 q 324 -19 407 -19 q 265 -11 294 -19 q 208 15 236 -3 q 109 109 153 51 q 35 239 65 167 q -10 393 6 311 q -25 558 -25 475 q -3 744 -25 649 q 65 917 18 839 q 187 1044 113 994 q 367 1093 261 1093 q 415 1090 390 1093 q 468 1082 440 1088 q 567 1034 528 1071 q 631 944 607 997 q 665 824 656 890 q 675 686 675 757 q 665 527 675 607 q 640 381 656 447 q 647 360 638 367 q 678 307 668 342 q 688 231 688 272 q 683 173 688 208 q 665 104 678 138 q 633 47 653 71 q 582 22 613 22 q 549 35 565 22 q 485 95 514 63 q 425 160 456 128 m 461 672 q 453 675 456 675 q 447 675 450 675 q 376 635 406 669 q 328 554 347 600 q 301 459 310 508 q 293 372 293 410 q 301 303 293 336 q 325 247 308 269 q 335 240 329 240 q 347 249 342 240 q 353 267 353 257 q 351 275 353 272 q 342 309 346 290 q 339 347 339 328 q 351 408 339 381 q 396 443 364 436 q 421 453 417 447 q 428 483 425 458 q 430 502 429 493 q 431 521 431 511 q 425 567 431 544 q 404 611 419 590 q 400 622 400 615 q 408 639 400 631 q 425 654 415 647 q 445 666 435 661 q 461 672 456 671 z "},"R":{"ha":701,"x_min":-26,"x_max":725,"o":"m 131 643 q 103 631 118 638 q 72 624 88 624 q 50 631 58 624 q -8 702 10 658 q -26 794 -26 746 q 9 936 -26 876 q 101 1034 44 996 q 228 1091 157 1072 q 372 1110 300 1110 q 495 1096 436 1110 q 600 1051 554 1082 q 674 969 646 1019 q 701 844 701 918 q 685 742 701 790 q 640 651 668 693 q 578 576 613 610 q 508 518 544 542 q 494 508 501 513 q 479 496 486 504 q 511 489 494 490 q 544 488 528 488 q 583 488 564 488 q 619 489 601 489 q 675 478 654 489 q 707 450 696 468 q 722 407 718 432 q 725 353 725 382 q 717 279 725 322 q 690 196 708 236 q 643 127 671 156 q 575 99 615 99 q 506 118 542 99 q 438 165 469 138 q 383 220 407 192 q 346 267 358 249 q 341 274 343 269 q 335 279 339 278 q 335 268 332 275 q 355 185 344 226 q 385 104 365 143 q 390 82 390 93 q 374 43 390 63 q 306 -5 346 11 q 224 -21 267 -21 q 133 -2 171 -21 q 72 49 96 17 q 36 124 47 82 q 25 214 25 167 q 38 331 25 272 q 63 443 50 390 q 85 513 71 479 q 110 582 99 547 q 120 611 114 597 q 133 640 126 625 l 131 643 m 311 554 q 344 565 326 557 q 379 584 363 572 q 407 611 396 596 q 418 644 418 626 q 403 681 418 665 q 361 697 388 697 q 349 696 353 697 q 331 693 343 694 q 307 689 319 692 q 285 682 294 686 q 275 672 275 678 q 290 673 283 672 q 303 674 297 674 q 317 671 313 674 q 321 657 321 668 l 321 646 q 315 601 318 624 q 311 554 313 579 z "},"S":{"ha":707,"x_min":-26,"x_max":736,"o":"m 697 844 q 650 710 696 754 q 522 656 604 667 q 504 654 515 654 q 453 671 469 654 q 426 709 438 688 q 401 751 415 731 q 358 778 388 771 q 343 779 353 779 q 315 766 324 779 q 307 733 307 753 q 315 695 307 714 q 338 665 322 676 q 380 638 357 650 q 426 619 403 626 q 509 593 468 608 q 590 564 550 578 q 697 489 657 542 q 736 351 736 436 q 707 217 736 276 q 626 104 678 157 q 554 46 596 71 q 465 4 513 21 q 369 -22 418 -12 q 276 -31 321 -31 q 172 -17 222 -31 q 83 23 121 -4 q 21 93 44 50 q -3 196 -3 136 q 2 246 -3 221 q 18 291 7 271 q 46 324 29 311 q 88 336 63 336 l 96 336 q 172 318 138 332 q 250 292 203 306 q 342 278 297 278 q 367 281 350 278 q 399 289 383 283 q 426 303 414 294 q 438 325 438 313 q 416 351 438 340 q 366 369 394 361 q 309 383 338 378 q 265 390 281 388 q 169 413 213 399 q 91 448 125 426 q 31 501 57 469 q -11 578 6 532 q -23 621 -19 599 q -26 665 -26 643 q -6 778 -26 724 q 51 881 15 833 q 135 969 88 929 q 238 1038 183 1010 q 349 1083 292 1067 q 460 1099 406 1099 q 558 1083 513 1099 q 629 1038 604 1068 q 680 947 664 994 q 697 844 696 899 z "},"T":{"ha":728,"x_min":-28,"x_max":778,"o":"m 424 696 q 438 693 432 693 q 467 698 451 693 q 497 703 483 703 q 515 699 507 703 q 526 682 522 694 q 549 628 536 654 q 574 576 563 603 q 606 494 590 539 q 635 404 622 450 q 655 312 647 358 q 663 224 663 265 q 642 114 663 160 q 585 39 622 68 q 499 -3 549 10 q 392 -17 450 -17 q 290 3 336 -17 q 232 67 244 22 q 216 149 221 107 q 211 236 211 192 q 229 437 211 336 q 263 626 247 538 q 260 639 265 639 q 246 636 256 639 q 192 619 218 625 q 142 614 165 614 q 67 635 99 614 q 13 688 35 656 q -18 761 -8 721 q -28 839 -28 801 q -11 947 -28 894 q 35 1039 6 999 q 88 1082 54 1064 q 163 1111 121 1100 q 256 1128 206 1122 q 358 1133 307 1133 q 549 1117 457 1133 q 693 1071 640 1100 q 754 1004 731 1050 q 778 906 778 958 q 774 865 778 888 q 760 824 769 843 q 736 792 751 806 q 699 774 721 778 q 559 743 626 761 q 431 701 492 725 q 424 696 425 699 z "},"U":{"ha":751,"x_min":-18,"x_max":764,"o":"m 394 925 q 421 983 399 951 q 474 1042 443 1014 q 542 1088 506 1069 q 613 1107 579 1107 q 657 1095 636 1107 q 693 1056 678 1083 q 726 963 713 1018 q 749 849 740 908 q 760 732 757 790 q 764 629 764 674 q 665 157 764 364 q 632 103 653 129 q 583 61 611 76 q 475 20 531 33 q 365 7 419 7 q 132 74 239 7 q 56 167 85 103 q 10 308 26 232 q -12 460 -7 385 q -18 583 -18 535 q 4 827 -18 710 q 71 1029 26 944 q 108 1074 83 1053 q 168 1096 132 1096 q 178 1095 174 1096 q 190 1093 183 1094 q 351 1014 281 1072 q 378 975 371 997 q 392 928 385 953 l 392 926 q 394 925 393 926 m 394 832 q 356 651 374 749 q 338 457 338 554 q 340 400 338 440 q 349 317 342 360 q 372 242 357 275 q 414 210 388 210 q 441 235 431 210 q 457 292 451 260 q 464 356 463 325 q 465 399 465 388 q 446 599 465 499 q 411 783 426 699 q 405 806 408 794 q 394 832 401 818 z "},"V":{"ha":710,"x_min":-19,"x_max":729,"o":"m 507 494 q 497 478 503 492 q 482 448 490 464 q 463 419 474 432 q 440 407 453 407 q 417 422 428 407 q 415 431 414 426 q 417 438 415 435 q 449 597 436 511 q 461 771 461 682 q 460 823 461 797 q 456 875 458 849 q 449 934 453 903 q 444 994 444 965 q 475 1081 444 1060 q 564 1103 506 1103 q 659 1082 615 1103 q 713 1018 703 1061 q 729 868 729 943 l 729 842 q 712 650 726 747 q 674 460 697 553 q 616 283 650 367 q 540 129 582 199 q 513 88 528 110 q 480 47 499 65 q 438 15 461 28 q 385 3 414 3 q 343 10 368 3 q 231 79 282 29 q 140 199 181 129 q 70 350 100 268 q 20 513 40 432 q -10 667 0 593 q -19 796 -19 742 q -13 881 -19 840 q 8 956 -7 921 q 48 1017 24 990 q 110 1061 72 1044 q 173 1085 136 1072 q 246 1099 210 1099 q 292 1089 271 1099 q 326 1056 314 1079 q 358 946 351 1007 q 365 817 365 885 q 364 718 365 768 q 363 618 363 668 q 364 545 363 582 q 371 475 365 508 q 378 442 374 458 q 392 413 383 426 q 414 392 401 400 q 443 383 426 383 l 446 383 q 474 396 463 383 q 492 426 485 408 q 503 462 500 443 q 507 494 507 481 z "},"W":{"ha":1126,"x_min":-19,"x_max":1144,"o":"m 563 265 q 559 254 560 260 q 557 243 558 249 q 538 168 549 206 q 513 99 528 131 q 474 43 497 68 q 415 6 451 18 q 386 1 401 1 q 343 8 367 1 q 231 77 282 26 q 140 197 181 128 q 70 349 100 267 q 20 512 40 431 q -10 667 0 593 q -19 794 -19 740 q -13 879 -19 839 q 8 955 -7 919 q 48 1017 24 990 q 110 1061 72 1044 q 173 1085 135 1072 q 247 1099 211 1099 q 293 1090 272 1099 q 326 1057 314 1081 q 357 945 353 1008 q 361 811 361 882 q 360 728 361 771 q 360 640 360 685 q 360 614 360 633 q 363 569 361 594 q 366 517 364 544 q 373 467 368 490 q 385 430 378 444 q 401 415 392 415 q 414 426 408 415 q 448 558 439 486 q 457 710 457 631 q 451 823 457 767 q 446 933 446 879 q 456 966 446 953 q 481 987 465 979 q 515 997 496 994 q 553 1000 533 1000 l 576 1000 q 667 979 625 996 q 744 928 708 963 q 753 917 750 922 q 756 904 756 913 q 753 851 754 878 q 753 797 753 825 q 758 658 753 726 q 775 529 763 589 q 780 500 778 519 q 787 462 782 481 q 799 429 792 443 q 819 415 807 415 l 821 415 q 834 434 828 415 q 844 476 840 453 q 852 522 849 500 q 857 551 856 544 q 870 656 867 604 q 874 758 874 707 q 871 860 874 810 q 864 963 868 910 q 862 981 863 972 q 861 1000 861 990 q 869 1052 861 1032 q 893 1083 878 1072 q 931 1099 908 1094 q 982 1103 953 1103 q 1031 1098 1007 1103 q 1074 1084 1054 1093 q 1108 1060 1094 1075 q 1128 1024 1122 1044 q 1144 886 1144 957 q 1106 525 1144 700 q 986 183 1068 350 q 957 126 974 158 q 917 67 940 94 q 865 19 894 39 q 797 0 835 0 q 768 4 783 0 q 692 37 725 14 q 633 93 658 60 q 592 168 608 126 q 568 256 576 210 q 563 265 568 263 z "},"X":{"ha":724,"x_min":-24,"x_max":764,"o":"m 378 743 q 392 774 385 751 q 407 822 400 796 q 419 871 414 847 q 425 906 424 894 q 436 975 431 939 q 454 1041 442 1011 q 488 1091 467 1071 q 547 1113 510 1111 l 554 1113 q 632 1102 594 1113 q 698 1072 669 1092 q 744 1022 726 1051 q 764 951 763 992 l 764 931 q 751 823 764 875 q 719 724 739 771 q 675 634 700 676 q 626 554 650 592 q 552 438 589 496 q 476 324 515 381 q 471 311 471 318 q 515 351 497 328 q 554 393 533 374 q 567 383 561 392 q 610 342 585 363 q 658 297 635 321 q 697 244 681 274 q 713 178 713 215 l 713 175 l 711 168 l 711 165 q 700 108 710 136 q 673 58 690 79 q 632 23 656 36 q 576 10 608 10 q 485 35 531 10 q 411 94 439 60 q 401 109 408 99 q 384 130 393 119 q 365 148 375 140 q 347 156 356 156 q 339 151 343 156 l 318 126 q 281 85 303 106 q 234 46 260 64 q 180 17 208 28 q 122 6 151 6 q 69 19 96 6 q 22 53 43 32 q -11 100 1 74 q -24 153 -24 126 q -17 183 -24 168 q 4 214 -11 199 q 19 227 11 221 q 35 240 28 233 q 108 301 71 269 q 178 367 144 332 q 239 442 211 403 q 288 525 267 481 q 226 458 254 493 q 160 399 197 424 q 153 403 156 399 q 51 602 99 497 q -15 835 3 707 q -17 857 -17 842 q -6 923 -17 890 q 22 984 4 956 q 60 1035 39 1013 q 104 1067 82 1057 q 162 1090 128 1078 q 228 1101 196 1101 q 276 1090 254 1101 q 311 1047 299 1078 q 333 974 325 1013 q 348 897 342 936 q 361 819 354 858 q 378 743 368 779 z "},"Y":{"ha":689,"x_min":-32,"x_max":726,"o":"m 400 444 q 448 457 425 447 q 492 475 471 467 l 494 475 q 515 445 506 475 q 533 376 525 415 q 547 298 542 336 q 551 242 551 260 q 493 84 551 140 q 339 13 435 28 q 303 8 321 8 q 237 24 264 8 q 194 67 210 40 q 172 131 179 94 q 165 207 165 167 q 179 344 165 274 q 210 467 193 414 q 204 483 213 476 q 119 553 161 513 q 43 643 76 594 q -11 745 10 692 q -32 854 -32 799 q -13 933 -32 894 q 35 1006 6 972 q 101 1065 65 1039 q 172 1104 138 1090 q 190 1110 182 1107 q 206 1113 197 1113 q 244 1083 235 1113 q 252 1053 250 1068 q 257 1024 254 1039 q 269 947 264 986 q 282 871 275 908 q 299 798 289 833 q 325 733 310 763 q 358 706 340 706 q 389 740 378 706 q 428 903 414 819 q 451 1079 443 988 q 466 1101 453 1094 q 494 1107 479 1107 q 524 1103 511 1107 q 594 1064 558 1090 q 660 1003 631 1038 q 708 931 689 969 q 726 851 726 892 q 714 785 726 818 q 597 592 672 675 q 418 457 521 510 q 408 452 414 454 q 400 444 403 450 z "},"Z":{"ha":642,"x_min":-14,"x_max":664,"o":"m 301 301 q 309 302 306 300 q 315 306 313 304 q 430 356 372 329 q 550 399 488 383 q 568 400 557 400 q 603 388 589 400 q 624 357 617 376 q 635 313 632 338 q 639 261 639 288 q 637 211 639 236 q 631 165 635 186 q 583 94 622 122 q 494 51 544 67 q 390 28 443 35 q 299 22 336 22 q 164 35 233 22 q 97 60 129 42 q 40 106 65 78 q 1 169 15 133 q -14 246 -14 204 q 19 388 -14 318 q 101 510 53 457 q 211 622 154 568 q 339 714 268 676 q 349 719 344 717 q 358 725 354 722 l 399 746 q 408 751 404 749 q 418 757 413 754 q 413 761 415 761 q 407 761 410 761 l 382 761 q 292 758 338 761 q 206 747 247 754 q 126 726 164 739 q 60 694 89 714 q 49 690 54 690 q 21 706 32 690 q 3 744 10 722 q -8 787 -4 765 q -11 819 -11 808 q 0 892 -11 857 q 30 956 11 926 q 73 1010 49 986 q 124 1047 97 1033 q 226 1085 169 1071 q 346 1099 283 1099 q 393 1097 363 1099 q 455 1089 424 1094 q 513 1076 486 1083 q 553 1058 540 1069 q 632 946 608 1010 q 663 794 656 882 q 663 781 664 788 q 663 768 663 775 q 656 718 663 740 q 633 681 650 696 q 506 558 568 619 q 389 425 443 496 q 346 372 368 397 q 308 317 324 347 q 303 310 306 314 q 301 301 301 307 z "},"[":{"ha":253,"x_min":-1,"x_max":272,"o":"m -1 1015 q 3 1058 -1 1042 q 33 1075 8 1074 q 254 1079 144 1079 q 269 1074 265 1079 q 272 1061 272 1069 l 272 1038 q 270 1031 272 1032 q 258 1029 268 1029 l 208 1029 q 194 1026 196 1029 q 192 1011 192 1024 l 192 -93 q 201 -106 192 -106 q 215 -104 211 -106 l 242 -104 q 256 -103 247 -103 l 264 -103 q 269 -105 268 -103 q 269 -115 269 -107 l 269 -122 l 272 -135 l 272 -140 q 268 -154 272 -149 q 253 -160 263 -160 l 247 -160 l 231 -158 q 140 -162 185 -161 q 49 -167 94 -164 l 44 -167 q 10 -153 19 -167 q 0 -114 0 -140 l 0 456 l -1 456 l -1 1015 z "},"\\":{"ha":583,"x_min":-33,"x_max":621,"o":"m 344 128 q 257 256 300 190 q 178 390 214 321 q 117 499 149 444 q 63 613 85 554 q 38 677 50 644 q 10 742 25 710 q -20 822 -7 778 q -33 914 -33 867 q -26 962 -33 936 q -6 1009 -19 988 q 26 1044 7 1031 q 72 1058 46 1058 q 96 1054 83 1058 q 107 1044 104 1051 q 113 1031 110 1038 q 214 810 160 921 q 330 592 268 699 q 463 389 392 486 q 613 208 533 292 q 621 188 621 200 l 621 175 q 603 89 621 125 q 558 21 585 53 q 531 -1 547 6 q 499 -7 515 -7 q 456 3 476 -7 q 422 31 435 14 q 383 79 403 56 q 344 128 363 103 z "},"]":{"ha":254,"x_min":-18,"x_max":257,"o":"m 65 999 q 64 1013 65 1007 q 54 1018 63 1018 q 40 1017 46 1018 l 14 1017 q 0 1015 10 1015 q -12 1015 -11 1014 q -14 1028 -14 1017 q -16 1049 -14 1038 q -12 1067 -18 1060 q 5 1072 -6 1074 q 25 1071 15 1071 q 116 1075 71 1074 q 207 1079 161 1076 l 211 1079 q 247 1066 236 1079 q 257 1026 257 1053 l 257 -103 q 252 -145 257 -129 q 222 -162 247 -161 q 1 -167 113 -167 q -13 -162 -10 -167 q -17 -149 -17 -157 l -17 -135 q -16 -121 -17 -124 q -3 -118 -15 -118 l 10 -118 l 35 -117 l 47 -117 q 62 -114 60 -117 q 64 -99 64 -111 q 65 450 65 176 q 65 999 65 724 z "},"^":{"ha":464,"x_min":-8,"x_max":474,"o":"m 228 906 q 195 847 211 876 q 168 785 179 817 q 149 755 161 764 q 121 746 136 746 q 87 755 108 746 q 44 777 65 764 q 7 807 22 790 q -8 840 -8 824 q 4 885 -8 854 q 33 949 17 915 q 65 1012 49 982 q 90 1054 82 1042 q 122 1087 106 1076 q 158 1101 138 1097 q 203 1104 178 1104 q 260 1106 228 1104 q 278 1103 269 1106 q 293 1094 286 1101 q 338 1048 314 1069 q 385 1004 363 1026 q 429 957 408 982 q 464 901 450 932 q 474 868 474 882 q 457 838 474 856 q 418 805 440 821 q 374 778 396 789 q 343 767 353 767 q 329 774 333 767 q 289 833 310 804 q 244 890 268 863 q 238 899 242 894 q 228 906 235 903 z "},"_":{"ha":513,"x_min":0,"x_max":514,"o":"m 7 -36 q 31 -15 10 -24 q 84 1 53 -6 q 151 11 115 7 q 221 17 188 15 q 280 20 254 19 q 314 21 306 21 q 389 17 353 21 q 453 2 425 13 q 497 -26 481 -8 q 514 -71 514 -44 l 514 -78 q 508 -116 513 -96 q 496 -153 504 -136 q 474 -181 488 -169 q 440 -192 460 -192 l 436 -192 q 365 -187 400 -189 q 294 -186 331 -186 q 171 -190 232 -186 q 53 -203 110 -194 l 46 -203 q 9 -173 18 -203 q 0 -107 0 -143 q 7 -36 0 -68 z "},"a":{"ha":772,"x_min":-33,"x_max":814,"o":"m 129 563 q 120 565 125 565 q 111 565 115 564 q 71 582 88 568 q 44 618 54 596 q 29 667 33 640 q 25 722 25 694 q 26 753 25 738 q 31 783 28 768 q 80 861 39 833 q 178 903 121 889 q 299 922 235 917 q 417 931 363 926 q 444 932 431 932 q 472 932 458 932 q 568 926 521 932 q 654 903 615 919 q 717 858 693 886 q 740 789 740 831 l 740 779 q 661 661 735 703 q 650 651 650 656 q 656 640 650 647 q 763 403 724 531 q 813 113 801 275 l 813 108 l 814 100 q 779 -14 814 33 q 674 -64 744 -61 q 633 -67 654 -65 q 592 -68 611 -68 q 547 -65 568 -68 q 510 -54 526 -62 q 482 -31 493 -46 q 468 8 471 -15 q 464 49 467 21 q 461 104 461 76 q 465 153 461 132 q 479 178 468 175 q 503 187 492 182 q 528 197 515 192 q 480 197 504 197 q 431 196 456 196 q 349 197 390 196 q 265 201 308 199 q 280 195 269 199 q 301 188 290 192 q 319 178 311 183 q 328 169 328 174 q 322 108 328 142 q 302 43 315 74 q 268 -8 289 13 q 218 -29 247 -29 l 210 -29 q 118 -18 161 -29 q 42 16 75 -7 q -12 73 8 39 q -33 153 -32 107 l -33 161 q -30 203 -33 182 q -24 244 -26 224 q -3 331 -18 289 q 33 411 13 372 q 79 487 54 450 q 129 558 104 524 l 129 563 m 456 361 q 449 412 456 376 q 433 485 442 447 q 415 556 424 524 q 400 594 406 588 q 388 486 396 539 q 372 379 379 433 l 371 376 q 379 369 371 371 q 456 357 419 365 l 456 361 z "},"b":{"ha":739,"x_min":-22,"x_max":756,"o":"m 71 500 q 63 504 68 504 q -1 552 21 514 q -22 638 -22 590 q -3 724 -22 689 q 57 793 17 760 q 224 890 129 854 q 436 925 318 925 q 549 912 492 925 q 651 869 606 899 q 726 794 697 840 q 756 683 756 749 l 756 668 q 731 569 753 614 q 676 488 708 525 q 607 419 644 450 q 535 361 569 388 q 533 358 533 360 q 540 356 536 356 q 549 354 544 356 q 622 335 585 349 q 688 301 658 322 q 737 249 718 279 q 756 179 756 218 q 706 60 756 108 q 585 -18 656 13 q 437 -62 514 -49 q 306 -75 360 -75 q 233 -69 268 -75 q 170 -49 197 -64 q 126 -11 143 -35 q 110 47 110 13 q 111 68 110 64 q 97 79 113 72 q 24 143 44 101 q 3 236 3 185 q 10 305 3 269 q 26 375 17 340 q 49 442 36 410 q 71 500 61 474 m 315 404 q 349 424 331 413 q 382 451 367 436 q 408 485 397 467 q 418 524 418 503 q 401 549 418 542 q 357 556 383 556 q 310 551 335 556 q 265 542 286 547 q 231 533 244 538 q 218 526 218 528 q 241 529 226 528 q 269 531 256 531 q 294 528 285 531 q 306 515 304 525 q 307 488 307 504 q 307 457 307 472 q 309 427 307 442 q 315 404 311 413 m 318 139 q 316 122 317 128 q 331 118 315 117 q 383 124 353 121 q 426 140 413 126 q 429 146 429 143 q 415 158 429 153 q 383 166 401 163 q 348 172 365 169 q 324 175 331 175 q 315 161 313 176 q 318 139 317 146 z "},"c":{"ha":628,"x_min":-25,"x_max":643,"o":"m 253 619 q 270 595 260 613 q 281 565 281 578 q 275 556 281 557 q 244 517 249 543 q 240 489 242 503 q 239 461 239 475 q 253 376 239 415 q 296 308 268 336 q 363 263 324 279 q 451 246 403 246 q 507 251 481 246 q 535 257 521 254 q 561 260 549 260 q 593 251 579 260 q 616 227 607 242 q 629 195 625 213 q 633 161 633 178 q 593 74 633 114 q 538 31 571 51 q 467 -5 506 11 q 387 -30 429 -21 q 301 -39 344 -39 q 153 -1 215 -39 q 52 98 92 38 q -6 235 13 158 q -25 388 -25 311 q -9 542 -25 465 q 39 689 7 618 q 94 781 60 736 q 173 860 128 825 q 274 917 218 896 q 394 939 329 939 l 401 939 q 510 910 464 938 q 585 835 556 882 q 628 729 614 789 q 643 604 643 669 q 631 482 643 543 q 609 426 625 453 q 570 378 593 399 q 517 344 547 357 q 454 331 488 331 q 382 347 419 331 q 337 395 349 363 q 319 467 325 428 q 306 544 314 506 q 274 608 299 582 q 266 615 271 611 q 253 619 261 618 z "},"d":{"ha":722,"x_min":-26,"x_max":739,"o":"m 739 551 q 694 294 736 408 q 582 96 653 181 q 538 53 565 75 q 476 14 510 32 q 404 -16 442 -4 q 329 -28 367 -28 q 272 -19 300 -28 q 219 10 243 -10 q 207 24 213 15 q 197 42 201 33 q 185 59 192 51 q 171 68 179 67 q 73 126 100 85 q 46 238 46 167 q 47 264 46 250 q 49 293 47 278 q 65 388 54 342 q 86 482 75 435 q 88 491 88 488 q 82 499 89 494 q 40 531 60 511 q 5 577 19 551 q -18 631 -10 603 q -26 689 -26 660 q 15 800 -26 754 q 117 874 57 846 q 243 916 176 903 q 361 929 310 929 q 638 833 538 929 q 739 551 739 736 m 354 275 q 394 309 375 288 q 427 356 413 331 q 450 410 442 382 q 458 467 458 439 q 441 536 458 504 q 381 568 424 568 q 310 555 347 568 q 250 533 272 542 q 249 531 249 532 l 272 531 q 308 526 293 531 q 328 503 324 521 q 346 392 342 447 q 354 275 350 338 z "},"e":{"ha":625,"x_min":-21,"x_max":643,"o":"m 136 400 q 78 426 107 411 q 28 460 50 440 q -7 506 7 481 q -21 564 -21 531 q -20 578 -21 571 q -18 594 -19 586 q 38 718 -6 657 q 141 828 81 779 q 270 906 201 876 q 403 936 339 936 q 500 918 456 936 q 576 868 544 900 q 626 791 608 836 q 643 692 643 746 q 631 601 643 647 q 593 510 618 554 q 553 468 578 481 q 500 456 528 456 q 417 481 457 456 q 363 549 378 507 q 344 582 356 565 q 314 599 333 599 q 297 596 303 599 q 279 578 279 589 q 292 556 279 567 q 314 540 306 544 q 342 521 328 532 q 369 496 357 510 q 390 467 382 482 q 397 435 397 451 q 388 403 397 418 q 356 372 379 388 q 342 363 351 369 q 322 349 332 357 q 305 331 313 340 q 297 314 297 322 q 308 297 297 303 q 322 293 315 293 q 345 302 333 293 q 367 322 357 311 q 388 345 378 333 q 406 361 397 357 q 485 383 444 383 q 547 367 519 383 q 592 326 574 351 q 621 270 611 301 q 631 207 631 239 q 592 104 631 147 q 497 34 553 61 q 380 -6 442 7 q 271 -18 318 -18 q 140 2 203 -18 q 32 67 78 22 q -8 123 4 94 q -19 181 -19 151 q -6 246 -19 214 q 28 306 7 278 q 76 356 50 333 q 128 394 103 379 q 136 400 128 394 z "},"f":{"ha":581,"x_min":-49,"x_max":613,"o":"m 274 313 q 317 306 296 307 q 358 301 339 304 q 393 290 376 297 q 422 265 410 282 q 447 234 433 250 q 471 201 460 218 q 490 165 482 185 q 497 121 497 144 q 476 54 497 82 q 422 9 454 26 q 353 -16 390 -8 q 283 -24 315 -24 q 201 -10 239 -24 q 140 31 163 3 q 72 140 101 79 q 35 274 42 200 q 33 283 35 279 q 24 288 32 286 q -28 322 -8 292 q -49 385 -49 353 q -38 423 -49 406 q -3 449 -28 440 q 20 460 15 456 q 25 475 25 464 l 25 488 q 24 510 24 499 q 24 533 24 522 q 100 824 24 718 q 354 950 176 931 q 372 952 363 951 q 389 953 381 953 q 478 938 438 953 q 549 897 519 924 q 596 831 579 869 q 613 746 613 793 q 602 668 613 708 q 570 595 592 628 q 517 541 549 563 q 442 519 485 519 q 391 525 417 519 q 344 544 365 531 q 310 577 324 557 q 297 626 297 597 q 291 642 297 642 q 278 629 285 642 q 271 585 271 615 q 278 534 271 558 q 304 510 286 510 l 321 510 q 396 506 357 510 q 466 489 435 501 q 517 455 497 476 q 538 399 538 433 l 538 392 q 506 344 536 358 q 433 325 475 331 q 347 319 392 319 q 274 313 303 319 z "},"g":{"ha":654,"x_min":-29,"x_max":679,"o":"m 285 524 q 458 563 364 563 q 601 543 526 563 q 637 513 622 538 q 661 458 651 489 q 675 395 671 426 q 679 343 679 364 q 652 210 679 276 q 578 90 625 143 q 470 3 532 36 q 338 -29 408 -29 q 219 -6 275 -29 q 126 54 164 18 q 13 210 54 125 q -29 419 -29 296 q -3 601 -29 507 q 74 774 24 696 q 201 902 125 851 q 378 953 278 953 q 476 937 428 953 q 561 891 524 921 q 622 817 599 861 q 644 719 644 774 l 643 710 l 643 706 q 610 637 640 663 q 539 611 579 611 q 531 610 535 611 q 522 611 526 610 q 464 615 492 615 q 356 593 401 615 q 285 524 310 571 m 236 326 q 242 290 238 310 q 254 255 246 271 q 277 228 263 239 q 313 218 292 218 q 355 234 333 218 q 376 276 376 250 q 366 287 376 283 q 341 292 356 290 q 313 295 326 294 q 292 296 299 296 q 260 303 274 297 q 240 325 247 310 l 239 325 q 236 326 238 326 z "},"h":{"ha":875,"x_min":-43,"x_max":919,"o":"m 643 217 q 460 203 551 206 q 276 192 368 200 q 297 188 282 190 q 329 183 313 186 q 358 175 346 179 q 371 165 371 171 q 364 115 371 144 q 346 56 357 85 q 319 6 335 28 q 286 -22 303 -17 q 228 -31 260 -31 q 165 -19 194 -31 q 119 17 135 -7 q 87 99 97 51 q 67 190 76 146 q 49 208 65 204 q -19 248 6 219 q -43 329 -43 276 q -31 381 -43 365 q 21 400 -19 397 q 32 411 33 400 q 24 493 26 451 q 21 576 21 535 q 34 742 21 663 q 76 879 47 821 q 142 939 97 919 q 235 958 186 958 q 292 951 264 958 q 345 931 321 944 q 387 899 369 918 q 411 854 404 879 q 423 786 419 822 q 426 714 426 750 q 419 572 426 643 q 406 436 411 501 q 406 426 404 426 q 418 425 407 425 q 433 426 428 425 l 464 426 q 479 428 469 428 q 492 429 490 428 q 493 440 493 431 q 503 666 494 557 q 535 876 513 775 q 577 929 543 914 q 654 944 611 944 q 703 941 678 944 q 751 931 728 938 q 816 889 799 918 q 836 810 833 860 q 838 765 838 786 q 838 719 838 743 q 835 572 838 644 q 832 425 832 500 q 847 400 832 404 q 876 386 861 396 q 908 358 896 375 q 919 319 919 342 q 911 282 919 303 q 892 266 907 272 q 863 255 878 260 q 835 244 847 250 q 822 226 822 238 q 817 166 821 199 q 806 104 814 133 q 785 51 797 75 q 753 15 772 26 q 710 -3 732 3 q 664 -8 688 -8 q 584 10 621 -8 q 532 63 547 29 q 525 80 529 68 q 517 106 521 92 q 510 135 513 121 q 507 161 507 150 q 517 181 507 179 q 549 185 531 182 q 584 192 567 188 q 617 202 601 196 q 643 217 633 208 z "},"i":{"ha":346,"x_min":-18,"x_max":367,"o":"m 256 594 q 307 556 288 574 q 335 503 326 539 q 358 352 351 435 q 367 188 364 269 l 367 165 q 351 61 367 104 q 289 -3 336 18 q 217 -26 254 -18 q 143 -35 179 -35 q 63 -20 93 -35 q 17 19 32 -6 q -3 79 1 44 q -8 154 -8 114 q -6 231 -8 192 q -1 307 -4 269 q 8 384 1 343 q 26 463 14 425 q 59 532 39 501 q 108 576 79 563 q 110 582 111 579 q 61 613 82 590 q 26 665 40 636 q 1 727 11 694 q -15 789 -10 760 q -17 802 -17 796 q -18 815 -18 808 q 0 876 -18 849 q 48 922 18 903 q 117 952 78 942 q 197 963 156 963 q 242 959 219 963 q 286 949 264 956 q 331 924 318 939 q 343 881 343 910 l 343 872 q 337 785 343 828 q 321 703 331 743 q 301 643 314 671 q 256 594 288 615 z "},"j":{"ha":642,"x_min":-32,"x_max":658,"o":"m 331 515 q 327 545 331 525 q 317 586 324 565 q 302 623 311 607 q 283 639 293 639 q 169 621 231 625 l 165 621 q 132 629 149 621 q 101 649 115 638 q 77 674 88 660 q 63 697 67 688 q 46 772 46 735 q 74 865 46 825 q 150 915 103 906 q 275 936 208 926 q 411 946 342 946 q 560 929 492 946 q 612 888 593 921 q 631 817 631 856 q 629 797 631 804 q 613 755 625 772 q 583 725 601 738 q 543 704 565 713 q 497 688 521 696 q 513 685 506 685 q 556 694 532 685 q 594 707 579 703 q 610 708 607 710 q 617 696 613 707 q 648 576 638 639 q 658 447 658 513 q 641 283 658 363 q 588 136 624 203 q 533 67 567 99 q 455 13 499 35 q 362 -22 411 -10 q 263 -35 313 -35 q 147 -15 201 -35 q 53 42 93 6 q -9 130 14 78 q -32 244 -32 182 q -22 335 -32 289 q 4 426 -11 381 q 28 480 13 453 q 67 528 44 507 q 119 563 90 550 q 183 576 149 576 l 200 576 q 256 562 231 574 q 306 532 282 550 q 317 523 311 528 q 331 515 322 518 m 351 413 q 349 411 349 411 l 347 411 q 332 376 343 392 q 310 346 321 361 q 293 325 304 340 q 271 291 282 310 q 251 251 260 272 q 243 214 243 231 q 272 175 243 185 q 286 172 283 172 q 324 197 310 172 q 344 258 338 222 q 353 331 351 293 q 354 396 354 369 q 351 413 354 407 z "},"k":{"ha":732,"x_min":-12,"x_max":783,"o":"m 467 361 q 481 365 472 361 q 500 373 490 368 q 519 381 510 378 q 535 385 529 385 q 543 381 542 385 q 580 340 558 358 q 626 304 601 321 q 678 273 651 288 q 729 246 704 258 q 770 202 757 231 q 783 140 783 174 q 772 76 783 108 q 739 24 760 44 q 683 -24 715 0 q 606 -47 650 -47 q 572 -43 589 -47 q 499 -6 529 -32 q 448 53 469 19 q 410 126 426 88 q 376 203 393 165 q 349 294 357 249 q 344 307 346 306 q 331 306 342 308 q 309 303 325 304 q 276 299 293 301 q 247 292 260 296 q 233 285 235 289 q 247 283 240 283 q 261 283 254 283 l 300 283 q 311 282 310 283 q 311 272 313 281 q 309 253 310 263 q 308 232 308 243 q 311 169 308 203 q 314 104 314 136 q 308 38 314 65 q 288 -8 303 10 q 249 -35 274 -26 q 186 -43 225 -43 q 124 -35 154 -43 q 70 -12 94 -28 q 29 24 46 3 q 7 74 13 46 q -8 183 -4 126 q -12 300 -12 240 q -11 383 -12 342 q -7 464 -10 424 q 1 603 -4 531 q 22 742 7 676 q 63 862 36 808 q 133 944 89 915 q 178 956 150 956 q 222 950 200 956 q 261 936 244 944 q 295 910 283 926 q 313 875 307 894 q 322 832 319 856 q 326 781 324 808 q 331 711 331 746 q 332 642 332 676 l 331 596 l 331 572 q 338 578 336 575 q 342 583 339 581 q 393 685 372 625 q 414 813 414 746 q 411 851 414 832 q 404 889 408 869 q 403 901 403 893 q 431 940 403 929 q 492 951 458 951 q 583 931 542 951 q 653 875 624 910 q 698 796 682 840 q 714 704 714 751 q 691 603 714 651 q 633 512 668 554 q 554 434 597 469 q 472 369 511 399 q 467 365 469 367 q 464 361 465 364 l 467 361 z "},"l":{"ha":563,"x_min":-17,"x_max":621,"o":"m 375 218 q 365 217 369 218 q 356 217 360 217 q 322 228 338 217 q 333 201 324 208 q 356 194 342 194 q 388 201 371 194 q 421 215 406 207 q 449 230 436 222 q 465 240 461 238 q 503 251 481 251 q 546 243 525 251 q 583 220 567 235 q 610 185 600 206 q 621 143 621 165 q 619 128 621 136 q 617 114 618 121 q 581 35 608 68 q 513 -18 553 3 q 423 -49 472 -39 q 321 -58 374 -58 q 265 -56 293 -58 q 210 -49 238 -54 q 159 -24 182 -43 q 118 20 136 -6 q 88 74 100 46 q 67 126 75 103 q 41 192 56 160 q 18 260 26 225 q -8 407 0 332 q -17 560 -17 482 q -15 642 -17 597 q -7 733 -14 688 q 13 820 0 778 q 50 895 26 863 q 110 947 74 928 q 197 967 146 967 q 287 945 254 967 q 336 888 319 924 q 358 808 353 853 q 363 717 363 764 q 360 618 363 668 q 354 524 357 568 q 352 479 353 501 q 351 433 351 457 q 356 321 351 376 q 375 218 361 265 z "},"m":{"ha":889,"x_min":-19,"x_max":900,"o":"m 469 658 q 503 743 486 700 q 545 822 521 786 q 603 885 569 858 q 688 919 638 911 q 701 922 694 921 q 715 922 708 922 q 791 896 760 922 q 843 827 822 869 q 875 732 864 785 q 892 625 886 679 q 899 521 897 571 q 900 436 900 471 q 889 250 900 339 q 854 78 878 161 q 792 -8 839 25 q 676 -40 744 -40 q 554 1 597 -40 q 511 125 511 42 q 518 189 511 157 q 540 250 525 221 q 557 280 547 263 q 576 316 567 297 q 591 355 585 335 q 597 394 597 375 q 597 407 597 401 q 594 419 597 413 q 585 429 593 429 q 569 419 578 429 q 551 397 560 410 q 535 372 542 385 q 526 356 528 360 q 516 318 522 340 q 500 275 510 296 q 477 239 490 254 q 444 224 464 224 q 415 232 432 224 q 378 270 390 246 q 356 322 365 294 q 337 376 346 349 q 310 422 328 403 q 300 428 306 428 q 284 410 288 428 q 281 383 281 393 q 292 336 281 361 q 312 292 301 317 q 331 241 322 268 q 346 186 340 214 q 351 132 351 158 q 308 27 351 64 q 200 -10 265 -10 q 114 18 150 -10 q 53 88 78 46 q 13 176 28 129 q -7 261 -1 224 q -19 432 -19 344 q -4 622 -19 531 q 43 785 11 714 q 81 845 58 817 q 126 901 103 874 q 174 931 143 921 q 238 942 204 942 q 297 933 269 942 q 343 904 325 924 q 410 806 383 861 q 456 690 436 750 q 460 676 458 683 q 469 658 463 668 z "},"n":{"ha":811,"x_min":-8,"x_max":821,"o":"m -8 453 q -7 561 -7 510 q -4 660 -7 613 q 8 753 -1 708 q 39 842 18 799 q 192 936 88 936 q 261 922 229 936 q 313 867 293 907 q 375 719 349 794 q 432 569 401 644 q 456 530 439 551 q 496 506 472 508 l 500 506 q 513 519 513 506 q 503 549 513 536 q 442 726 442 633 q 455 807 442 767 q 492 879 468 847 q 552 931 517 911 q 632 950 588 950 q 688 938 661 950 q 738 906 715 925 q 777 860 761 886 q 799 807 793 835 q 815 683 810 747 q 821 553 821 619 q 814 377 821 464 q 796 207 807 290 q 773 112 789 158 q 739 26 757 65 q 693 -25 722 -10 q 631 -40 664 -40 q 581 -33 606 -40 q 534 -12 556 -25 q 496 16 513 0 q 471 49 479 32 q 446 111 457 79 q 424 174 435 143 q 399 235 413 206 q 368 292 386 265 q 356 312 364 299 q 338 338 347 325 q 317 360 328 350 q 294 369 306 369 l 289 369 q 279 357 279 368 q 285 341 279 350 q 293 326 290 332 q 347 233 319 286 q 374 122 374 179 q 359 53 374 86 q 319 -4 344 21 q 262 -44 294 -29 q 193 -60 229 -60 q 178 -59 186 -60 q 163 -57 171 -58 q 61 8 96 -44 q 11 133 26 60 q -6 292 -4 207 q -8 453 -8 376 z "},"o":{"ha":679,"x_min":-22,"x_max":699,"o":"m -22 414 q 15 672 -22 557 q 124 867 51 786 q 218 928 158 906 q 343 951 278 951 q 435 938 392 951 q 514 893 479 924 q 597 794 563 850 q 655 674 632 738 q 688 543 678 610 q 699 413 699 476 q 686 284 699 346 q 649 171 674 222 q 586 80 624 119 q 500 17 549 40 q 417 -21 461 -3 q 319 -39 372 -39 q 305 -38 313 -39 q 289 -36 297 -37 q 154 14 213 -26 q 57 115 96 54 q -2 253 18 176 q -22 414 -22 331 m 415 728 q 399 729 410 729 q 353 717 372 729 q 321 683 333 704 q 302 634 308 661 q 296 578 296 607 q 301 525 296 551 q 315 476 306 499 q 339 435 325 453 q 371 410 353 418 q 394 404 382 404 q 419 415 410 404 q 435 441 429 425 q 444 476 442 457 q 447 514 447 496 l 447 526 q 442 565 447 543 q 428 607 438 586 q 406 644 419 628 q 376 667 393 661 q 368 676 368 669 q 374 691 368 683 q 387 706 379 699 q 403 720 394 714 q 415 728 411 726 z "},"p":{"ha":692,"x_min":-29,"x_max":715,"o":"m 144 521 q 113 515 128 517 q 83 514 99 514 q 4 539 35 514 q -29 625 -26 564 l -29 642 q 11 779 -29 721 q 113 877 51 838 q 249 936 175 917 q 392 956 324 956 q 513 938 454 956 q 617 887 572 921 q 688 801 661 853 q 715 683 715 750 q 695 574 715 625 q 650 482 675 524 q 644 472 647 476 q 638 463 642 467 q 548 377 596 415 q 438 313 500 339 q 427 306 428 308 q 429 294 426 304 q 458 221 440 261 q 475 138 475 181 q 453 62 475 96 q 399 3 432 28 q 326 -34 365 -21 q 249 -47 286 -47 q 165 -26 200 -47 q 107 31 129 -4 q 74 108 85 65 q 64 193 64 150 q 72 281 64 236 q 90 367 79 325 q 116 449 101 410 q 144 521 131 488 m 379 444 q 431 490 410 467 q 464 544 453 514 q 468 558 467 551 q 469 571 469 565 q 451 605 469 596 q 406 614 432 614 q 369 610 388 614 q 337 603 351 607 q 313 594 322 599 q 303 586 303 589 q 313 588 310 586 l 332 588 q 342 589 335 589 q 359 588 357 590 q 361 572 361 585 l 361 563 q 367 505 361 533 q 379 444 372 476 z "},"q":{"ha":669,"x_min":-21,"x_max":683,"o":"m 425 117 q 447 75 435 94 q 472 36 458 56 q 478 24 479 26 q 469 15 478 22 q 324 -40 408 -40 q 265 -33 294 -40 q 208 -11 236 -26 q 110 72 153 21 q 38 185 67 122 q -6 321 8 249 q -21 465 -21 393 q 2 641 -21 556 q 72 793 25 726 q 190 900 119 860 q 358 940 261 940 l 364 940 q 511 913 451 939 q 607 840 571 886 q 658 728 643 793 q 674 586 674 664 q 670 508 674 549 q 661 425 667 468 q 657 403 660 417 q 651 374 654 390 q 644 343 647 358 q 642 315 642 328 q 647 293 642 297 q 675 249 667 278 q 683 183 683 219 q 676 117 683 150 q 657 56 669 83 q 627 10 644 28 q 588 -7 610 -7 q 549 7 568 -7 q 485 60 514 32 q 425 117 456 89 m 461 569 q 443 574 456 574 q 417 567 431 574 q 392 551 404 561 q 372 533 381 542 q 358 517 363 524 q 335 476 347 500 q 313 422 324 451 q 297 362 303 393 q 290 300 290 331 q 298 242 290 269 q 325 193 306 215 q 335 189 328 189 q 347 196 342 189 q 353 211 353 203 q 351 218 353 217 q 342 248 346 232 q 339 281 339 264 q 351 335 339 310 q 396 367 364 361 q 419 375 415 371 q 428 401 424 379 q 430 418 429 410 q 431 435 431 426 q 425 476 431 456 q 404 515 419 496 q 400 524 400 519 q 408 540 400 532 q 425 553 415 547 q 445 564 435 560 q 461 569 456 568 z "},"r":{"ha":703,"x_min":-25,"x_max":725,"o":"m 131 543 q 103 532 118 539 q 74 525 89 525 q 50 532 61 525 q -8 594 10 556 q -25 678 -25 633 q 13 808 -25 756 q 110 893 51 861 q 240 940 169 925 q 374 954 310 954 q 488 943 431 954 q 594 906 546 932 q 672 834 642 879 q 701 721 701 789 q 684 629 701 672 q 639 549 667 586 q 576 483 611 513 q 508 433 542 454 q 494 424 501 429 q 479 413 486 419 q 510 407 494 408 q 542 406 526 406 q 580 407 561 406 q 617 408 599 408 q 703 377 682 408 q 725 288 725 346 q 716 218 725 257 q 688 144 707 179 q 641 86 669 110 q 575 63 613 63 q 506 79 542 63 q 440 120 471 96 q 383 169 408 144 q 346 211 358 194 q 341 217 343 214 q 335 222 339 221 q 335 213 332 219 q 355 140 344 176 q 385 68 365 103 q 392 43 392 58 q 371 5 392 21 q 322 -22 350 -11 q 263 -37 293 -32 q 211 -43 232 -43 q 128 -26 164 -43 q 70 22 93 -8 q 36 92 47 53 q 25 175 25 132 q 31 235 25 199 q 47 310 38 271 q 68 383 57 349 q 89 438 79 418 q 110 490 101 464 q 133 540 118 517 l 131 543 m 311 464 q 342 473 324 467 q 378 490 361 479 q 406 514 394 500 q 418 544 418 528 q 402 577 418 564 q 361 590 386 590 l 349 590 q 333 589 344 590 q 308 585 321 588 q 285 578 296 582 q 275 569 275 575 q 290 570 283 569 q 303 571 297 571 q 317 567 313 571 q 322 553 322 564 l 321 549 q 315 506 318 526 q 311 464 313 486 z "},"s":{"ha":710,"x_min":-25,"x_max":740,"o":"m 699 736 q 648 613 697 658 q 518 568 599 568 q 503 568 511 568 q 489 569 496 568 q 448 588 463 572 q 422 621 433 603 q 397 656 410 639 q 360 678 385 672 q 346 679 354 679 q 317 667 326 679 q 308 638 308 654 q 316 604 308 621 q 339 578 324 588 q 435 536 382 551 q 541 505 489 521 q 639 467 593 489 q 713 403 685 444 q 740 310 740 361 q 730 243 740 276 q 703 180 719 210 q 666 125 686 150 q 628 83 646 100 q 563 36 601 58 q 477 -3 524 14 q 378 -30 431 -19 q 275 -40 326 -40 q 178 -28 228 -40 q 89 8 129 -17 q 22 72 49 33 q -4 167 -4 111 q 19 251 -4 214 q 96 288 43 288 q 174 272 135 288 q 251 249 204 261 q 343 236 299 236 q 367 238 351 236 q 398 245 382 240 q 426 258 414 250 q 438 278 438 267 q 416 301 438 290 q 367 318 394 311 q 310 330 339 325 q 267 336 282 335 q 172 355 215 343 q 93 385 128 367 q 33 433 58 404 q -10 501 7 461 q -22 540 -18 521 q -25 578 -25 558 q -1 685 -25 635 q 51 768 24 736 q 124 838 83 804 q 215 899 165 872 q 321 943 264 926 q 442 960 378 960 q 551 949 501 960 q 631 907 600 939 q 681 827 665 869 q 699 736 697 785 z "},"t":{"ha":728,"x_min":-28,"x_max":778,"o":"m 424 589 q 438 588 428 588 q 467 592 451 588 q 496 596 482 596 q 514 592 506 596 q 526 578 522 589 q 549 531 536 554 q 574 485 563 508 q 605 415 589 454 q 633 335 621 376 q 654 252 646 293 q 663 175 663 211 q 643 83 663 124 q 590 15 624 43 q 510 -26 556 -12 q 411 -40 464 -40 q 361 -37 389 -40 q 308 -27 333 -35 q 261 -5 282 -19 q 232 35 240 10 q 216 108 221 71 q 211 183 211 144 q 229 360 211 271 q 263 528 247 449 q 260 540 265 539 q 246 538 256 540 q 143 518 190 518 q 70 535 101 518 q 17 578 39 551 q -17 641 -6 606 q -28 715 -28 676 q -11 811 -28 764 q 35 893 6 858 q 88 933 54 917 q 163 958 121 949 q 255 973 206 968 q 356 978 304 978 q 453 974 404 978 q 547 963 503 969 q 629 944 592 956 q 693 921 667 933 q 753 862 729 903 q 778 774 778 821 q 759 701 778 736 q 699 658 740 665 q 560 632 628 647 q 431 594 493 617 q 424 589 425 592 z "},"u":{"ha":751,"x_min":-18,"x_max":764,"o":"m 394 792 q 419 846 400 821 q 465 890 439 871 q 522 924 492 910 q 579 946 553 938 q 613 951 596 951 q 686 915 657 951 q 733 822 715 879 q 757 697 750 765 q 764 564 764 629 q 756 428 764 504 q 730 276 749 351 q 678 137 711 201 q 597 38 646 72 q 547 13 576 24 q 485 -3 518 3 q 422 -13 453 -10 q 365 -17 390 -17 q 132 40 238 -17 q 61 109 89 64 q 16 211 33 154 q -9 331 -1 268 q -18 450 -17 393 l -18 485 q -15 555 -18 511 q -5 650 -12 599 q 16 753 3 701 q 50 848 29 806 q 100 917 71 890 q 168 943 129 943 q 214 936 189 943 q 264 919 239 929 q 312 895 289 908 q 351 871 335 882 q 378 835 371 856 q 392 793 385 815 l 394 792 m 394 710 q 356 551 374 638 q 338 378 338 465 q 340 326 338 361 q 350 253 342 290 q 374 190 358 217 q 414 163 389 163 q 441 184 431 163 q 457 234 451 206 q 464 290 463 263 q 465 328 465 317 q 446 504 465 417 q 411 667 426 592 q 405 688 408 678 q 394 710 401 697 z "},"v":{"ha":710,"x_min":-18,"x_max":729,"o":"m 507 413 q 500 406 501 410 q 497 397 499 401 q 490 382 496 392 q 477 362 485 372 q 460 344 469 351 q 440 336 451 336 q 417 349 428 336 q 415 355 414 351 q 417 361 415 358 q 449 501 436 425 q 461 656 461 576 q 460 702 461 679 q 456 749 458 725 q 449 801 453 774 q 444 853 444 828 q 453 903 444 885 q 478 932 463 922 q 516 945 494 942 q 564 949 538 949 q 658 931 614 949 q 713 874 703 913 q 729 742 729 807 l 729 719 q 712 550 726 636 q 673 381 697 464 q 615 224 649 299 q 540 90 582 150 q 513 53 528 72 q 478 17 497 33 q 435 -10 458 0 q 383 -21 413 -21 q 343 -15 361 -21 q 235 43 285 0 q 144 145 185 86 q 74 275 104 204 q 23 417 43 346 q -8 556 3 489 q -18 676 -18 624 q -12 751 -18 715 q 9 819 -6 788 q 49 874 24 850 q 110 913 74 899 q 173 935 136 924 q 246 946 210 946 q 292 938 271 946 q 326 907 314 929 q 358 811 350 865 q 365 694 365 757 q 364 612 365 654 q 363 528 363 569 q 364 460 363 493 q 371 396 365 428 q 393 341 376 367 q 443 315 410 315 l 446 315 q 473 326 461 315 q 492 352 485 338 q 503 383 499 367 q 507 413 507 400 z "},"w":{"ha":1126,"x_min":-18,"x_max":1144,"o":"m 563 211 q 559 201 560 207 q 557 190 558 196 q 536 120 549 157 q 504 51 524 83 q 456 -1 485 19 q 388 -22 428 -22 q 343 -17 365 -22 q 235 42 285 -1 q 144 144 185 85 q 74 274 104 203 q 23 417 43 346 q -8 556 3 489 q -18 676 -18 624 q -12 752 -18 715 q 9 819 -6 789 q 49 874 24 850 q 110 913 74 899 q 173 934 135 922 q 247 946 211 946 q 293 938 272 946 q 326 908 314 929 q 357 810 351 865 q 363 692 363 756 q 361 618 363 656 q 360 543 360 581 q 361 501 360 533 q 367 433 363 468 q 379 369 371 397 q 401 342 388 342 q 414 353 407 342 q 448 470 439 406 q 457 606 457 535 q 451 703 457 654 q 446 800 446 753 q 456 829 446 818 q 481 847 465 840 q 515 856 496 853 q 553 858 535 858 l 576 858 q 667 840 625 856 q 744 794 708 825 q 753 785 750 789 q 756 774 756 781 l 756 760 l 754 732 q 756 683 754 718 q 760 605 757 649 q 767 515 763 561 q 779 430 772 468 q 797 367 786 392 q 819 342 807 342 q 831 353 826 342 q 866 506 854 428 q 878 664 878 585 l 876 682 l 876 692 q 867 767 875 724 q 860 850 860 810 q 869 903 860 883 q 894 933 878 922 q 933 946 910 943 q 983 949 956 949 q 1074 933 1032 949 q 1128 879 1117 917 q 1144 758 1144 819 q 1106 440 1144 594 q 986 138 1068 285 q 956 87 974 115 q 915 34 938 58 q 862 -7 892 10 q 796 -24 832 -24 q 782 -23 789 -24 q 768 -21 775 -22 q 633 56 682 -6 q 568 201 585 118 q 563 211 568 208 z "},"x":{"ha":725,"x_min":-24,"x_max":764,"o":"m 378 631 q 396 660 389 642 q 408 698 403 678 q 418 738 414 718 q 425 775 422 758 q 437 838 431 806 q 456 897 443 871 q 490 941 468 924 q 547 958 511 958 l 554 958 q 630 950 593 958 q 696 924 667 942 q 744 878 725 906 q 764 815 763 851 l 764 796 q 751 699 764 746 q 719 612 739 653 q 674 534 699 571 q 626 465 650 497 q 552 363 589 414 q 476 261 515 311 q 471 250 471 256 q 515 285 497 265 q 554 322 533 304 q 562 319 560 321 q 567 314 564 317 q 610 278 585 296 q 658 239 635 260 q 697 192 681 218 q 713 133 713 167 q 712 128 713 131 q 711 122 711 125 q 672 26 707 67 q 576 -15 638 -15 q 487 6 532 -15 q 411 60 442 28 q 401 72 408 64 q 384 90 393 81 q 365 107 375 100 q 347 114 356 114 q 339 110 343 114 q 337 107 338 108 q 333 104 336 106 l 324 93 l 318 88 q 229 16 285 47 q 117 -15 174 -15 q 44 3 78 -15 q -14 69 10 22 q -24 107 -24 89 q -6 153 -24 133 q 35 188 11 172 q 177 299 108 238 q 288 439 246 360 q 226 381 254 411 q 160 328 197 351 q 153 332 157 328 q 51 506 99 414 q -15 713 3 599 q -17 732 -17 719 q -6 790 -17 761 q 22 844 4 819 q 60 888 39 869 q 104 917 82 907 q 162 938 128 928 q 228 949 196 949 q 276 938 254 949 q 311 900 299 928 q 333 837 325 871 q 348 767 342 803 q 361 697 354 732 q 378 631 368 663 z "},"y":{"ha":690,"x_min":-32,"x_max":726,"o":"m 400 368 q 448 379 425 371 q 492 394 471 388 q 515 372 504 394 q 533 315 525 349 q 544 242 540 281 q 549 172 549 204 q 547 144 549 157 q 543 122 546 131 q 513 68 535 93 q 459 24 490 43 q 390 -5 428 6 q 314 -15 353 -15 q 197 24 231 -15 q 164 149 164 63 q 179 278 164 213 q 210 388 194 343 q 204 403 214 397 q 121 463 163 428 q 45 539 79 497 q -10 629 11 581 q -32 729 -32 678 q -12 802 -32 767 q 38 867 8 838 q 104 917 68 896 q 172 950 140 939 q 206 957 190 957 q 244 932 235 957 q 252 905 250 918 q 257 878 254 892 q 282 742 269 811 q 325 622 294 674 q 358 597 340 597 q 383 619 372 597 q 405 673 394 640 q 423 746 415 706 q 437 823 431 786 q 447 888 443 860 q 451 928 450 917 q 466 947 453 942 q 494 953 479 953 q 524 949 511 953 q 591 917 556 939 q 656 865 626 894 q 706 799 686 835 q 726 728 726 764 q 714 668 726 697 q 595 497 672 569 q 418 379 518 425 q 408 374 414 376 q 400 368 403 372 z "},"z":{"ha":643,"x_min":-14,"x_max":664,"o":"m 301 243 q 309 243 306 242 q 315 246 313 244 q 431 291 374 267 q 550 328 488 315 q 567 329 557 329 q 623 292 607 329 q 639 207 639 256 q 631 122 639 160 q 583 58 622 83 q 492 19 543 33 q 387 1 440 6 q 299 -4 333 -4 q 232 -1 265 -4 q 164 7 199 1 q 99 28 131 13 q 42 67 67 43 q 1 124 17 92 q -14 193 -14 156 q -4 258 -14 225 q 22 320 6 290 q 58 377 38 350 q 101 426 79 404 q 211 525 154 476 q 339 606 268 574 q 349 610 344 608 q 358 615 354 613 l 399 635 q 404 638 399 635 l 413 642 q 418 644 418 644 q 413 647 415 647 q 407 647 410 647 l 381 647 q 206 635 293 647 q 60 589 119 624 q 49 585 54 585 q 22 599 33 585 q 3 631 11 613 q -8 669 -4 650 q -11 700 -11 689 q 1 765 -11 733 q 32 822 13 796 q 75 869 51 849 q 124 900 99 889 q 224 932 171 922 q 336 942 278 942 q 384 940 353 942 q 449 935 415 939 q 511 926 482 932 q 553 910 540 919 q 632 812 608 867 q 663 678 656 757 q 663 665 664 671 q 663 653 663 658 q 633 576 663 601 q 506 469 568 524 q 389 351 443 414 q 346 306 368 328 q 308 256 324 283 q 303 250 306 253 q 301 243 301 247 z "}}}
